<svg fill="none" height="29" viewBox="0 0 29 28" width="29" xmlns="http://www.w3.org/2000/svg" class="hover:[&amp;&gt;path]:fill-white/80" data-node-hydration="346"><path clip-rule="evenodd" d="M14.5728 2.52783C8.1161 2.52783 2.89648 7.78593 2.89648 14.2909C2.89648 19.4907 6.24087 23.8922 10.8804 25.45C11.4605 25.5671 11.673 25.1969 11.673 24.8855C11.673 24.6128 11.6538 23.678 11.6538 22.7041C8.40577 23.4053 7.72939 21.3019 7.72939 21.3019C7.20741 19.9386 6.43399 19.5882 6.43399 19.5882C5.3709 18.8676 6.51143 18.8676 6.51143 18.8676C7.69067 18.9455 8.30946 20.0751 8.30946 20.0751C9.35319 21.8666 11.0351 21.3604 11.7117 21.0488C11.8082 20.2892 12.1178 19.7634 12.4464 19.4713C9.85581 19.1986 7.13021 18.186 7.13021 13.6676C7.13021 12.3822 7.59388 11.3306 8.32858 10.5127C8.21266 10.2207 7.80659 9.01298 8.44473 7.39659C8.44473 7.39659 9.43062 7.08493 11.6536 8.60404C12.6053 8.34655 13.5869 8.21557 14.5728 8.21446C15.5587 8.21446 16.5637 8.35093 17.4918 8.60404C19.715 7.08493 20.7009 7.39659 20.7009 7.39659C21.339 9.01298 20.9327 10.2207 20.8168 10.5127C21.5709 11.3306 22.0154 12.3822 22.0154 13.6676C22.0154 18.186 19.2898 19.179 16.6799 19.4713C17.1053 19.8413 17.4724 20.5423 17.4724 21.6525C17.4724 23.2299 17.4533 24.4959 17.4533 24.8853C17.4533 25.1969 17.666 25.5671 18.2458 25.4503C22.8854 23.892 26.2298 19.4907 26.2298 14.2909C26.2489 7.78593 21.0101 2.52783 14.5728 2.52783Z" fill="white" fill-rule="evenodd"></path></svg>