<svg fill="none" height="29" viewBox="0 0 29 28" width="29" xmlns="http://www.w3.org/2000/svg" class="hover:[&amp;&gt;path]:fill-white/80" data-node-hydration="347"><path d="M25.0625 5.04412V22.9559C25.0625 23.3654 24.8998 23.7582 24.6102 24.0477C24.3207 24.3373 23.9279 24.5 23.5184 24.5H5.60662C5.19709 24.5 4.80434 24.3373 4.51476 24.0477C4.22518 23.7582 4.0625 23.3654 4.0625 22.9559V5.04412C4.0625 4.63459 4.22518 4.24184 4.51476 3.95226C4.80434 3.66268 5.19709 3.5 5.60662 3.5H23.5184C23.9279 3.5 24.3207 3.66268 24.6102 3.95226C24.8998 4.24184 25.0625 4.63459 25.0625 5.04412ZM10.239 11.5294H7.15074V21.4118H10.239V11.5294ZM10.5169 8.13235C10.5185 7.89875 10.4741 7.66712 10.3862 7.45068C10.2984 7.23424 10.1687 7.03723 10.0047 6.8709C9.84062 6.70458 9.64543 6.57219 9.43023 6.4813C9.21503 6.39041 8.98404 6.34279 8.75044 6.34118H8.69485C8.2198 6.34118 7.76421 6.52989 7.4283 6.8658C7.09239 7.20171 6.90368 7.6573 6.90368 8.13235C6.90368 8.6074 7.09239 9.06299 7.4283 9.39891C7.76421 9.73482 8.2198 9.92353 8.69485 9.92353C8.92847 9.92928 9.16093 9.88894 9.37895 9.80481C9.59697 9.72069 9.79628 9.59443 9.96548 9.43325C10.1347 9.27208 10.2705 9.07914 10.3651 8.86546C10.4597 8.65179 10.5113 8.42156 10.5169 8.18794V8.13235ZM21.9743 15.4082C21.9743 12.4374 20.0843 11.2824 18.2066 11.2824C17.5918 11.2516 16.9797 11.3825 16.4314 11.6621C15.883 11.9417 15.4175 12.3602 15.0813 12.8759H14.9949V11.5294H12.0919V21.4118H15.1801V16.1556C15.1355 15.6173 15.3051 15.0831 15.652 14.6691C15.999 14.255 16.4953 13.9946 17.0331 13.9444H17.1504C18.1325 13.9444 18.8613 14.5621 18.8613 16.1185V21.4118H21.9496L21.9743 15.4082Z" fill="white"></path></svg>