<svg width="44" height="44" viewBox="0 0 44 44" fill="none" xmlns="http://www.w3.org/2000/svg">
<path d="M38.5 22C38.5 31.1127 31.1127 38.5 22 38.5C12.8873 38.5 5.5 31.1127 5.5 22M38.5 22C38.5 12.8873 31.1127 5.5 22 5.5M38.5 22H34.8333M5.5 22C5.5 12.8873 12.8873 5.5 22 5.5M5.5 22H9.16667M22 5.5V9.16667M24.4253 19.25C23.779 18.6795 22.9299 18.3333 22 18.3333C19.975 18.3333 18.3333 19.975 18.3333 22C18.3333 24.025 19.975 25.6667 22 25.6667C24.025 25.6667 25.6667 24.025 25.6667 22C25.6667 20.9049 25.1866 19.9219 24.4253 19.25ZM24.4253 19.25L29.0087 14.6667" stroke="#00D190" stroke-width="2" stroke-linecap="round"/>
</svg>
