<svg width="44" height="44" viewBox="0 0 44 44" fill="none" xmlns="http://www.w3.org/2000/svg">
<path d="M19.7653 17.301L20.1653 18.2176C20.4414 18.0971 20.6484 17.8586 20.7289 17.5683C20.8094 17.2781 20.7548 16.967 20.5803 16.7216L19.7653 17.301ZM15.7712 11.6838L15.4292 10.7441C15.1358 10.8509 14.9092 11.0885 14.8164 11.3866C14.7236 11.6846 14.7753 12.0089 14.9562 12.2633L15.7712 11.6838ZM20.9395 9.80271L21.4064 8.91843C21.1567 8.78655 20.8629 8.76643 20.5975 8.86302L20.9395 9.80271ZM28.1837 13.628L27.7168 14.5123C27.9857 14.6543 28.3046 14.6662 28.5834 14.5447L28.1837 13.628ZM30.304 12.7035L30.7037 13.6202L30.704 13.62L30.304 12.7035ZM38.9535 16.4122L39.8932 16.0702L39.8932 16.0702L38.9535 16.4122ZM38.678 17.003L39.02 17.9427L39.0209 17.9424L38.678 17.003ZM14.1303 25.9376L13.4428 26.6638C13.7179 26.9242 14.1164 27.0069 14.4724 26.8773L14.1303 25.9376ZM9.66507 21.7099L8.72538 22.0519C8.77848 22.1978 8.86481 22.3293 8.97754 22.436L9.66507 21.7099ZM9.66474 21.709L10.6044 21.367C10.5513 21.221 10.465 21.0895 10.3522 20.9827L9.66474 21.709ZM6.68876 18.8919L6.34674 17.9522C6.02104 18.0707 5.77995 18.3495 5.70958 18.6889C5.63921 19.0282 5.74959 19.3799 6.0013 19.6181L6.68876 18.8919ZM11.8571 17.0108L12.5446 16.2846C12.2695 16.0242 11.871 15.9415 11.515 16.0711L11.8571 17.0108ZM14.5622 19.5721L13.8747 20.2982C14.1662 20.5742 14.5944 20.6491 14.9623 20.4886L14.5622 19.5721ZM19.7653 17.301L20.5803 16.7216L16.5862 11.1043L15.7712 11.6838L14.9562 12.2633L18.9503 17.8805L19.7653 17.301ZM15.7712 11.6838L16.1132 12.6235L21.2815 10.7424L20.9395 9.80271L20.5975 8.86302L15.4292 10.7441L15.7712 11.6838ZM20.9395 9.80271L20.4726 10.687L27.7168 14.5123L28.1837 13.628L28.6507 12.7437L21.4064 8.91843L20.9395 9.80271ZM28.1837 13.628L28.5834 14.5447L30.7037 13.6202L30.304 12.7035L29.9043 11.7869L27.784 12.7113L28.1837 13.628ZM30.304 12.7035L30.704 13.62C33.5886 12.3612 36.9374 13.797 38.0138 16.7543L38.9535 16.4122L39.8932 16.0702C38.4221 12.0287 33.8457 10.0668 29.904 11.787L30.304 12.7035ZM38.9535 16.4122L38.0138 16.7543C37.9116 16.4736 38.0569 16.1652 38.335 16.0637L38.678 17.003L39.0209 17.9424C39.7771 17.6663 40.1694 16.8293 39.8932 16.0702L38.9535 16.4122ZM38.678 17.003L38.336 16.0633L13.7883 24.998L14.1303 25.9376L14.4724 26.8773L39.02 17.9427L38.678 17.003ZM14.1303 25.9376L14.8179 25.2115L10.3526 20.9837L9.66507 21.7099L8.97754 22.436L13.4428 26.6638L14.1303 25.9376ZM9.66507 21.7099L10.6048 21.3679L10.6044 21.367L9.66474 21.709L8.72504 22.051L8.72538 22.0519L9.66507 21.7099ZM9.66474 21.709L10.3522 20.9827L7.37621 18.1657L6.68876 18.8919L6.0013 19.6181L8.97728 22.4352L9.66474 21.709ZM6.68876 18.8919L7.03078 19.8316L12.1991 17.9505L11.8571 17.0108L11.515 16.0711L6.34674 17.9522L6.68876 18.8919ZM11.8571 17.0108L11.1695 17.7369L13.8747 20.2982L14.5622 19.5721L15.2498 18.8459L12.5446 16.2846L11.8571 17.0108ZM14.5622 19.5721L14.9623 20.4886L20.1653 18.2176L19.7653 17.301L19.3653 16.3845L14.1622 18.6556L14.5622 19.5721Z" fill="#00D190"/>
<path d="M7.33301 34.8333L36.6663 34.8333" stroke="#00D190" stroke-width="2" stroke-linecap="round" stroke-linejoin="round"/>
</svg>
