<svg width="44" height="44" viewBox="0 0 44 44" fill="none" xmlns="http://www.w3.org/2000/svg">
<path d="M18.3337 9.16675H11.167C10.0624 9.16675 9.16699 10.0622 9.16699 11.1667V29.3334H34.8337V24.7501" stroke="#00D190" stroke-width="2" stroke-linecap="round" stroke-linejoin="round"/>
<path d="M32.0178 9.16667C33.3749 9.16667 34.5598 9.9039 35.1938 10.9997M32.0178 9.16667C30.6608 9.16667 29.4759 9.90389 28.8419 10.9997M32.0178 9.16667V5.5M32.0178 20.1667V16.439M38.3687 9.16667L35.1938 10.9997M25.667 16.5L28.8419 14.667M38.3687 16.5L35.1939 14.667M25.667 9.16667L28.8419 10.9997M28.8419 14.667C28.5298 14.1276 28.3512 13.5013 28.3512 12.8333C28.3512 12.1653 28.5298 11.5391 28.8419 10.9997M28.8419 14.667C29.5638 15.9147 30.7962 16.4636 32.0178 16.439M32.0178 16.439C33.2791 16.4137 34.5289 15.777 35.1939 14.667M35.1939 14.667C35.502 14.1528 35.6845 13.537 35.6845 12.8333C35.6845 12.1654 35.5059 11.5391 35.1938 10.9997" stroke="#00D190" stroke-width="2" stroke-linecap="round"/>
<path d="M5.5 29.3333H38.5V32.8333C38.5 33.9378 37.6046 34.8333 36.5 34.8333H7.5C6.39543 34.8333 5.5 33.9378 5.5 32.8333V29.3333Z" stroke="#00D190" stroke-width="2" stroke-linecap="round" stroke-linejoin="round"/>
</svg>
