<svg fill="none" height="26" viewBox="0 0 101 26" width="101" xmlns="http://www.w3.org/2000/svg" data-node-hydration="30"><g clip-path="url(#clip0_10_356)"><path d="M37.6133 19.1325V4.46362H40.8564V19.1325H37.6133ZM40.1293 19.1325V16.5761H43.5801C44.2033 16.5761 44.6938 16.3915 45.0574 16.0279C45.4151 15.6586 45.5998 15.2027 45.5998 14.6487C45.5998 14.291 45.519 13.962 45.3517 13.6735C45.1843 13.385 44.9535 13.1541 44.6534 12.9868C44.3533 12.8195 44.0013 12.7387 43.5859 12.7387H40.135V10.2458H43.3146C43.8398 10.2458 44.2726 10.113 44.6015 9.85336C44.9362 9.58792 45.0977 9.18397 45.0977 8.63C45.0977 8.07602 44.9304 7.7067 44.6015 7.43548C44.2668 7.16426 43.8398 7.03154 43.3146 7.03154H40.135V4.46362H43.9379C44.8785 4.46362 45.6806 4.63674 46.35 4.98298C47.0194 5.32921 47.5156 5.79086 47.8561 6.37369C48.1966 6.95652 48.3639 7.59129 48.3639 8.28376C48.3639 9.21283 48.0754 9.98609 47.4925 10.5978C46.9097 11.2152 46.0499 11.6422 44.9189 11.8731L44.9996 10.7709C46.2461 11.0075 47.204 11.4864 47.8676 12.202C48.5313 12.9176 48.866 13.8062 48.866 14.8622C48.866 15.6644 48.6698 16.3857 48.2716 17.0204C47.8792 17.6552 47.3079 18.1688 46.5693 18.5497C45.8306 18.9305 44.9362 19.1209 43.8975 19.1209H40.135L40.1293 19.1325Z" fill="#00E6A5"></path><path d="M50.6602 19.1325V9.03394H53.8571V19.1325H50.6602Z" fill="#00E6A5"></path><path d="M59.1783 19.1902L55.0234 9.03394H58.4743L61.1114 17.0724H59.8419L62.5194 9.03394H65.9703L61.6481 19.1902H59.1783ZM56.5815 23.3912L59.6168 16.8242L61.6539 19.1902L59.865 23.3854H56.5815V23.3912Z" fill="#00E6A5"></path><path d="M70.9968 19.3402C70.0851 19.3402 69.2599 19.1094 68.527 18.642C67.7941 18.1803 67.2171 17.5571 66.79 16.7723C66.3688 15.9875 66.1553 15.093 66.1553 14.0832C66.1553 13.0733 66.3688 12.1673 66.79 11.371C67.2113 10.5747 67.7884 9.95144 68.5154 9.50133C69.2425 9.05123 70.0677 8.82617 70.9968 8.82617C71.6777 8.82617 72.2894 8.9589 72.8376 9.21857C73.3858 9.48402 73.8302 9.84757 74.1764 10.3092C74.5226 10.7709 74.7188 11.3018 74.7592 11.8961V16.2587C74.7188 16.8531 74.5284 17.384 74.1879 17.8456C73.8475 18.3073 73.4031 18.6708 72.8607 18.9363C72.3125 19.2017 71.6951 19.3287 71.0026 19.3287L70.9968 19.3402ZM71.6604 16.4491C72.3414 16.4491 72.8838 16.2299 73.2935 15.7855C73.7032 15.3412 73.9052 14.7699 73.9052 14.0601C73.9052 13.6042 73.8129 13.2003 73.634 12.8425C73.4551 12.4905 73.1896 12.2135 72.8434 12.0115C72.4972 11.8096 72.1048 11.7115 71.6604 11.7115C71.2161 11.7115 70.8468 11.8096 70.5063 12.0115C70.1658 12.2135 69.8946 12.4905 69.6984 12.8541C69.4965 13.2118 69.3984 13.6215 69.3984 14.0774C69.3984 14.5333 69.4965 14.943 69.6984 15.3008C69.9004 15.6586 70.1716 15.9413 70.5063 16.1433C70.8468 16.3453 71.2276 16.4434 71.6604 16.4434V16.4491ZM73.784 19.1325V16.4087L74.263 13.9389L73.784 11.5095V9.03968H76.9232V19.1382H73.784V19.1325Z" fill="#00E6A5"></path><path d="M79.1387 19.1325V9.03391H82.3356V19.1325H79.1387ZM82.3414 13.6042L81.0141 12.5655C81.2796 11.3768 81.7239 10.4535 82.3529 9.8014C82.9819 9.14933 83.8475 8.82617 84.9381 8.82617C85.4229 8.82617 85.8499 8.90119 86.2134 9.04545C86.5827 9.18972 86.9001 9.409 87.1771 9.69753L85.2844 12.1096C85.1574 11.9711 84.9958 11.8615 84.7881 11.7749C84.5803 11.6942 84.3438 11.648 84.0841 11.648C83.5416 11.648 83.1204 11.8096 82.8088 12.1385C82.4972 12.4617 82.3414 12.9522 82.3414 13.6042Z" fill="#00E6A5"></path><path d="M92.0414 19.3402C91.0719 19.3402 90.2179 19.1094 89.4735 18.6535C88.7348 18.1976 88.152 17.5744 87.7365 16.7838C87.321 15.9932 87.1133 15.093 87.1133 14.0832C87.1133 13.0733 87.321 12.1731 87.7365 11.3825C88.152 10.592 88.7348 9.96873 89.4792 9.51285C90.2294 9.05698 91.0777 8.82615 92.0356 8.82615C92.7165 8.82615 93.3398 8.95311 93.9053 9.21278C94.4708 9.46669 94.9382 9.83024 95.296 10.2919C95.6538 10.7535 95.8615 11.2902 95.9192 11.9019V16.1606C95.8615 16.755 95.6538 17.2916 95.296 17.7706C94.9382 18.2495 94.4708 18.6304 93.9053 18.9132C93.3398 19.1959 92.7165 19.3402 92.0356 19.3402H92.0414ZM92.6011 16.4491C93.057 16.4491 93.4552 16.351 93.7841 16.149C94.1188 15.9471 94.3785 15.6701 94.5631 15.3065C94.7478 14.9488 94.8459 14.5333 94.8459 14.0601C94.8459 13.5869 94.7536 13.2003 94.5631 12.8425C94.3727 12.4847 94.1188 12.2135 93.7841 12.0115C93.4494 11.8096 93.0628 11.7115 92.6184 11.7115C92.1741 11.7115 91.7875 11.8153 91.4528 12.0231C91.1181 12.2308 90.8526 12.5136 90.6507 12.8656C90.4487 13.2176 90.3506 13.6215 90.3506 14.0832C90.3506 14.5448 90.4429 14.9488 90.6333 15.3065C90.818 15.6643 91.0892 15.9471 91.4355 16.149C91.7817 16.351 92.1683 16.4491 92.6011 16.4491ZM97.8581 19.1324H94.7189V16.4087L95.1979 13.9389L94.6555 11.5095V4.0481H97.8524V19.1324H97.8581Z" fill="#00E6A5"></path><path d="M50.6602 9.03394V4.46362H53.8571V7.26813" fill="#00E6A5"></path></g><path d="M18.1821 7.05012L20.0068 9.80022L22.9047 5.43611L27.7589 12.528L23.0262 19.8265L11.6228 2.67993L7.96747 2.68398L1.41016 12.5442L8.07885 22.5564L11.7281 22.5523L14.6382 18.1923L12.8115 15.4422L9.91562 19.8043L5.06143 12.5341L9.79412 5.41383L21.1975 22.5604L24.8528 22.5564L31.4102 12.5382L24.7394 2.68601L21.0922 2.69006L18.1821 7.05012Z" fill="#00E6A5"></path><defs><clipPath id="clip0_10_356"><rect fill="white" height="19.3431" transform="translate(37.6133 4.0481)" width="60.2451"></rect></clipPath></defs></svg>