<svg width="346" height="347" viewBox="0 0 346 347" fill="none" xmlns="http://www.w3.org/2000/svg">
<mask id="mask0_199_7107" style="mask-type:alpha" maskUnits="userSpaceOnUse" x="0" y="0" width="346" height="347">
<rect y="0.0966797" width="346" height="346" rx="16" fill="#2C2C2C"/>
</mask>
<g mask="url(#mask0_199_7107)">
<path d="M75.8496 27.2898C75.8496 26.5651 75.9801 25.8484 76.2431 25.1397C76.5061 24.431 76.8875 23.7986 77.3894 23.2405C77.8913 22.6824 78.5057 22.2307 79.2304 21.8854C79.9551 21.5401 80.7803 21.3674 81.7078 21.3674C82.8019 21.3674 83.7475 21.6063 84.5445 22.0861C85.3415 22.566 85.9358 23.1903 86.3273 23.9612L84.5525 25.1839C84.396 24.8486 84.2072 24.5675 83.9844 24.3387C83.7616 24.1098 83.5206 23.9291 83.2657 23.7946C83.0087 23.6601 82.7417 23.5637 82.4626 23.5015C82.1836 23.4413 81.9105 23.4092 81.6435 23.4092C81.0633 23.4092 80.5574 23.5256 80.1278 23.7605C79.6982 23.9954 79.3408 24.2985 79.0557 24.6719C78.7707 25.0453 78.5559 25.469 78.4113 25.9448C78.2668 26.4185 78.1945 26.8903 78.1945 27.3601C78.1945 27.8841 78.2788 28.39 78.4454 28.8758C78.6121 29.3617 78.849 29.7873 79.1561 30.1567C79.4633 30.5241 79.8307 30.8212 80.2603 31.044C80.6899 31.2669 81.1617 31.3793 81.6757 31.3793C81.9427 31.3793 82.2217 31.3452 82.5128 31.2789C82.8019 31.2127 83.079 31.1063 83.342 30.9617C83.605 30.8172 83.8479 30.6305 84.0707 30.4016C84.2936 30.1728 84.4722 29.8977 84.6068 29.5725L86.4979 30.6606C86.3092 31.1063 86.0382 31.4998 85.6868 31.8411C85.3355 32.1824 84.94 32.4694 84.4983 32.7023C84.0567 32.9372 83.5869 33.1159 83.083 33.2384C82.5811 33.3608 82.0892 33.4231 81.6094 33.4231C80.7602 33.4231 79.9853 33.2444 79.2826 32.887C78.5799 32.5297 77.9736 32.0639 77.4657 31.4897C76.9578 30.9156 76.5623 30.2631 76.2772 29.5323C75.9921 28.8016 75.8496 28.0567 75.8496 27.2979V27.2898Z" fill="#FCB300"/>
<path d="M93.0538 26.485C92.3732 26.4971 91.7649 26.6276 91.2289 26.8785C90.6929 27.1295 90.3094 27.5069 90.0745 28.0088V33.3149H87.832V24.5437H89.8898V26.4188C90.0464 26.1176 90.2311 25.8466 90.4419 25.6077C90.6527 25.3688 90.8836 25.158 91.1285 24.9793C91.3734 24.8007 91.6224 24.6641 91.8733 24.5698C92.1243 24.4754 92.3672 24.4272 92.6021 24.4272H92.8791C92.9394 24.4272 92.9996 24.4333 93.0538 24.4433V26.485Z" fill="#FCB300"/>
<path d="M94.4929 35.0234C94.6816 35.0796 94.8663 35.1218 95.045 35.1479C95.2237 35.176 95.3742 35.19 95.4967 35.19C95.6413 35.19 95.7758 35.1619 95.8982 35.1057C96.0207 35.0495 96.1331 34.9531 96.2335 34.8126C96.3339 34.6721 96.4343 34.4794 96.5346 34.2344C96.635 33.9895 96.7414 33.6823 96.8518 33.3129L93.3867 24.5417H95.6975L98.0745 31.3716L100.182 24.5417H102.29L98.6085 35.0535C98.3957 35.6679 98.0343 36.1698 97.5204 36.5592C97.0064 36.9507 96.37 37.1454 95.6111 37.1454C95.4325 37.1454 95.2518 37.1314 95.0671 37.1033C94.8824 37.0752 94.6896 37.029 94.4889 36.9607V35.0194L94.4929 35.0234Z" fill="#FCB300"/>
<path d="M108.772 33.4834C108.079 33.4834 107.477 33.3308 106.963 33.0237C106.449 32.7165 106.047 32.3009 105.758 31.777V36.8823H103.516V24.5456H105.473V26.0513C105.796 25.5373 106.216 25.1338 106.728 24.8387C107.242 24.5436 107.832 24.395 108.503 24.395C109.095 24.395 109.641 24.5155 110.143 24.7544C110.645 24.9953 111.076 25.3185 111.44 25.7261C111.803 26.1336 112.086 26.6134 112.293 27.1655C112.5 27.7176 112.602 28.3018 112.602 28.9141C112.602 29.5264 112.508 30.1468 112.317 30.7049C112.126 31.263 111.861 31.7489 111.522 32.1604C111.181 32.574 110.777 32.8972 110.307 33.1301C109.84 33.365 109.326 33.4814 108.768 33.4814L108.772 33.4834ZM108.019 31.5742C108.354 31.5742 108.663 31.5019 108.948 31.3574C109.233 31.2128 109.476 31.0161 109.677 30.7712C109.878 30.5262 110.034 30.2411 110.145 29.9179C110.257 29.5947 110.311 29.2594 110.311 28.9141C110.311 28.5467 110.251 28.2034 110.127 27.8842C110.004 27.567 109.834 27.29 109.617 27.0551C109.4 26.8202 109.143 26.6375 108.846 26.503C108.551 26.3685 108.229 26.3022 107.884 26.3022C107.671 26.3022 107.455 26.3384 107.232 26.4107C107.009 26.4829 106.802 26.5853 106.611 26.7198C106.421 26.8543 106.252 27.0109 106.101 27.1876C105.951 27.3663 105.836 27.561 105.758 27.7738V29.8316C105.959 30.3335 106.266 30.7491 106.68 31.0783C107.093 31.4076 107.539 31.5722 108.019 31.5722V31.5742Z" fill="#FCB300"/>
<path d="M119.268 32.8632C118.967 32.9977 118.597 33.1302 118.164 33.2647C117.728 33.3993 117.27 33.4655 116.79 33.4655C116.477 33.4655 116.184 33.4254 115.911 33.3491C115.638 33.2708 115.397 33.1463 115.19 32.9716C114.984 32.799 114.819 32.5761 114.696 32.3031C114.574 32.0301 114.512 31.6968 114.512 31.3073V26.2683H113.357V24.5438H114.512V21.699H116.754V24.5438H118.595V26.2683H116.754V30.5525C116.754 30.8657 116.835 31.0865 116.997 31.213C117.158 31.3415 117.357 31.4057 117.591 31.4057C117.826 31.4057 118.055 31.3656 118.278 31.2893C118.501 31.211 118.68 31.1447 118.814 31.0885L119.266 32.8632H119.268Z" fill="#FCB300"/>
<path d="M124.273 33.4836C123.559 33.4836 122.918 33.3611 122.348 33.1162C121.78 32.8713 121.296 32.538 120.901 32.1205C120.505 31.7029 120.2 31.219 119.989 30.673C119.776 30.1269 119.672 29.5507 119.672 28.9484C119.672 28.3462 119.778 27.7539 119.989 27.2079C120.202 26.6618 120.505 26.178 120.901 25.7604C121.296 25.3428 121.78 25.0095 122.348 24.7646C122.916 24.5197 123.559 24.3972 124.273 24.3972C124.988 24.3972 125.626 24.5197 126.191 24.7646C126.755 25.0095 127.235 25.3428 127.63 25.7604C128.025 26.178 128.331 26.6618 128.541 27.2079C128.752 27.7539 128.859 28.3361 128.859 28.9484C128.859 29.5608 128.752 30.1269 128.541 30.673C128.329 31.221 128.027 31.7029 127.638 32.1205C127.249 32.538 126.769 32.8713 126.199 33.1162C125.63 33.3611 124.988 33.4836 124.273 33.4836ZM121.981 28.9464C121.981 29.3379 122.039 29.6913 122.155 30.0105C122.272 30.3277 122.434 30.6047 122.641 30.8396C122.848 31.0745 123.091 31.2552 123.37 31.3837C123.649 31.5121 123.95 31.5764 124.273 31.5764C124.596 31.5764 124.898 31.5121 125.177 31.3837C125.456 31.2552 125.699 31.0745 125.905 30.8396C126.112 30.6047 126.273 30.3257 126.391 30.0024C126.508 29.6792 126.568 29.3219 126.568 28.9304C126.568 28.5389 126.51 28.1996 126.391 27.8764C126.275 27.5532 126.112 27.2741 125.905 27.0392C125.699 26.8043 125.456 26.6236 125.177 26.4952C124.898 26.3667 124.596 26.3024 124.273 26.3024C123.95 26.3024 123.649 26.3687 123.37 26.5032C123.091 26.6377 122.848 26.8204 122.641 27.0553C122.434 27.2902 122.274 27.5692 122.155 27.8925C122.039 28.2157 121.981 28.567 121.981 28.9464Z" fill="#FCB300"/>
<path d="M136.91 25.6998V33.3166H134.6V21.4316H136.39L142.584 29.2312V21.4477H144.895V33.3146H143.019L136.91 25.6978V25.6998Z" fill="#FCB300"/>
<path d="M151.106 33.4834C150.403 33.4834 149.767 33.363 149.199 33.1241C148.63 32.8852 148.145 32.5579 147.743 32.1444C147.342 31.7308 147.032 31.251 146.814 30.7049C146.597 30.1588 146.486 29.5827 146.486 28.9804C146.486 28.3781 146.593 27.7678 146.804 27.2137C147.016 26.6616 147.321 26.1758 147.725 25.7582C148.127 25.3406 148.614 25.0073 149.191 24.7624C149.765 24.5175 150.409 24.395 151.124 24.395C151.839 24.395 152.477 24.5175 153.041 24.7624C153.605 25.0073 154.085 25.3366 154.481 25.7501C154.876 26.1637 155.177 26.6435 155.384 27.1896C155.591 27.7357 155.693 28.3058 155.693 28.8961C155.693 29.0406 155.691 29.1811 155.685 29.3136C155.679 29.4481 155.665 29.5586 155.643 29.6489H148.863C148.897 29.9942 148.98 30.3014 149.114 30.5704C149.249 30.8374 149.421 31.0663 149.632 31.257C149.845 31.4477 150.084 31.5923 150.353 31.6926C150.622 31.793 150.899 31.8432 151.19 31.8432C151.636 31.8432 152.057 31.7348 152.453 31.516C152.848 31.2971 153.119 31.0101 153.264 30.6547L155.189 31.1907C154.866 31.8613 154.35 32.4094 153.641 32.839C152.933 33.2686 152.088 33.4834 151.106 33.4834ZM153.382 28.1934C153.326 27.5349 153.083 27.0069 152.654 26.6114C152.224 26.2159 151.702 26.0172 151.088 26.0172C150.787 26.0172 150.506 26.0694 150.243 26.1758C149.98 26.2822 149.749 26.4287 149.548 26.6194C149.347 26.8102 149.183 27.037 149.054 27.306C148.926 27.573 148.851 27.8702 148.827 28.1934H153.38H153.382Z" fill="#FCB300"/>
<path d="M161.131 33.4834C160.429 33.4834 159.792 33.363 159.224 33.1241C158.656 32.8852 158.17 32.5579 157.768 32.1444C157.367 31.7308 157.058 31.251 156.839 30.7049C156.622 30.1588 156.512 29.5827 156.512 28.9804C156.512 28.3781 156.618 27.7678 156.829 27.2137C157.042 26.6616 157.347 26.1758 157.75 25.7582C158.152 25.3406 158.64 25.0073 159.216 24.7624C159.79 24.5175 160.435 24.395 161.149 24.395C161.864 24.395 162.502 24.5175 163.067 24.7624C163.631 25.0073 164.11 25.3366 164.506 25.7501C164.901 26.1637 165.203 26.6435 165.409 27.1896C165.616 27.7357 165.719 28.3058 165.719 28.8961C165.719 29.0406 165.717 29.1811 165.711 29.3136C165.705 29.4481 165.69 29.5586 165.668 29.6489H158.889C158.923 29.9942 159.005 30.3014 159.14 30.5704C159.274 30.8374 159.447 31.0663 159.658 31.257C159.87 31.4477 160.109 31.5923 160.378 31.6926C160.645 31.793 160.924 31.8432 161.216 31.8432C161.661 31.8432 162.083 31.7348 162.478 31.516C162.874 31.2971 163.145 31.0101 163.289 30.6547L165.215 31.1907C164.891 31.8613 164.375 32.4094 163.667 32.839C162.958 33.2686 162.113 33.4834 161.131 33.4834ZM163.408 28.1934C163.352 27.5349 163.109 27.0069 162.679 26.6114C162.249 26.2159 161.727 26.0172 161.113 26.0172C160.812 26.0172 160.531 26.0694 160.268 26.1758C160.005 26.2822 159.774 26.4287 159.573 26.6194C159.373 26.8102 159.208 27.037 159.079 27.306C158.951 27.573 158.877 27.8702 158.853 28.1934H163.406H163.408Z" fill="#FCB300"/>
<path d="M170.722 33.4836C170.12 33.4836 169.562 33.3671 169.048 33.1322C168.534 32.8973 168.095 32.5741 167.725 32.1626C167.356 31.751 167.069 31.2672 166.864 30.7151C166.657 30.163 166.555 29.5688 166.555 28.9323C166.555 28.2959 166.653 27.7057 166.848 27.1576C167.043 26.6116 167.314 26.1317 167.659 25.7182C168.004 25.3046 168.418 24.9814 168.898 24.7465C169.377 24.5116 169.901 24.3952 170.472 24.3952C171.118 24.3952 171.702 24.5518 172.22 24.8629C172.738 25.1761 173.144 25.5837 173.433 26.0856V21.0967H175.675V30.7392C175.675 30.9741 175.713 31.1407 175.792 31.2411C175.87 31.3415 176.004 31.3977 176.193 31.4077V33.3149C175.802 33.3932 175.484 33.4314 175.24 33.4314C174.838 33.4314 174.509 33.331 174.252 33.1302C173.995 32.9295 173.85 32.6685 173.816 32.3433L173.766 31.7912C173.443 32.3493 173.005 32.7709 172.453 33.0539C171.901 33.339 171.323 33.4816 170.72 33.4816L170.722 33.4836ZM171.307 31.5743C171.519 31.5743 171.736 31.5382 171.959 31.4659C172.182 31.3937 172.389 31.2893 172.577 31.1568C172.766 31.0222 172.937 30.8677 173.087 30.689C173.238 30.5103 173.352 30.3156 173.431 30.1028V28.0108C173.34 27.7659 173.216 27.5391 173.053 27.3323C172.891 27.1255 172.708 26.9468 172.501 26.7963C172.294 26.6457 172.078 26.5252 171.849 26.4369C171.62 26.3486 171.393 26.3024 171.17 26.3024C170.835 26.3024 170.526 26.3747 170.241 26.5192C169.956 26.6638 169.713 26.8625 169.512 27.1135C169.311 27.3644 169.155 27.6515 169.044 27.9747C168.932 28.2979 168.877 28.6332 168.877 28.9785C168.877 29.3459 168.938 29.6872 169.062 30.0004C169.187 30.3136 169.351 30.5866 169.564 30.8195C169.777 31.0544 170.03 31.2371 170.325 31.3716C170.62 31.5061 170.947 31.5723 171.305 31.5723L171.307 31.5743Z" fill="#FCB300"/>
<path d="M181.201 33.4834C180.465 33.4834 179.746 33.3669 179.041 33.132C178.339 32.8971 177.736 32.5639 177.232 32.1282L178.07 30.7229C178.606 31.1023 179.128 31.3894 179.636 31.5842C180.143 31.7789 180.647 31.8773 181.151 31.8773C181.597 31.8773 181.948 31.793 182.205 31.6263C182.462 31.4597 182.591 31.2188 182.591 30.9056C182.591 30.5924 182.44 30.3636 182.139 30.219C181.838 30.0745 181.346 29.9058 180.665 29.7171C180.097 29.5605 179.611 29.4099 179.21 29.2654C178.808 29.1208 178.485 28.9562 178.238 28.7715C177.993 28.5868 177.815 28.376 177.702 28.1351C177.59 27.8962 177.536 27.6071 177.536 27.2739C177.536 26.8282 177.622 26.4267 177.795 26.0693C177.967 25.7119 178.21 25.4088 178.523 25.1579C178.834 24.9069 179.202 24.7142 179.619 24.5797C180.037 24.4452 180.493 24.3789 180.985 24.3789C181.643 24.3789 182.259 24.4733 182.834 24.664C183.408 24.8527 183.936 25.1599 184.416 25.5835L183.512 26.9386C183.067 26.6033 182.633 26.3584 182.215 26.2018C181.798 26.0452 181.38 25.9669 180.969 25.9669C180.589 25.9669 180.272 26.0452 180.015 26.2018C179.758 26.3584 179.629 26.6093 179.629 26.9546C179.629 27.1112 179.66 27.2397 179.722 27.3401C179.782 27.4405 179.88 27.5308 180.015 27.6071C180.149 27.6854 180.324 27.7597 180.543 27.834C180.76 27.9062 181.031 27.9825 181.354 28.0608C181.956 28.2174 182.472 28.374 182.902 28.5286C183.332 28.6852 183.683 28.8639 183.956 29.0646C184.229 29.2654 184.43 29.4963 184.558 29.7593C184.687 30.0223 184.751 30.3374 184.751 30.7048C184.751 31.5641 184.434 32.2427 183.797 32.7385C183.161 33.2344 182.296 33.4834 181.203 33.4834H181.201Z" fill="#FCB300"/>
<path d="M190.441 33.3147V21.4297H195.697C196.243 21.4297 196.749 21.5441 197.213 21.773C197.677 22.0018 198.074 22.303 198.41 22.6764C198.745 23.0498 199.006 23.4734 199.197 23.9492C199.385 24.423 199.482 24.9008 199.482 25.3806C199.482 26.1516 199.289 26.8522 198.903 27.4806C198.518 28.111 197.996 28.5667 197.34 28.8458L200.052 33.3147H197.458L195.031 29.3316H192.754V33.3147H190.443H190.441ZM192.752 27.3059H195.647C195.86 27.3059 196.057 27.2557 196.241 27.1554C196.426 27.055 196.585 26.9185 196.719 26.7458C196.854 26.5732 196.958 26.3684 197.036 26.1355C197.115 25.9006 197.153 25.6497 197.153 25.3826C197.153 25.1156 197.109 24.8466 197.018 24.6137C196.928 24.3788 196.81 24.1761 196.659 24.0034C196.508 23.8308 196.336 23.6963 196.141 23.6019C195.946 23.5076 195.747 23.4594 195.547 23.4594H192.752V27.3099V27.3059Z" fill="#FCB300"/>
<path d="M203.915 33.4835C203.011 33.4835 202.325 33.1944 201.855 32.6142C201.385 32.034 201.152 31.1748 201.152 30.0364V24.5457H203.395V29.5506C203.395 30.9017 203.881 31.5763 204.85 31.5763C205.286 31.5763 205.708 31.4458 206.113 31.1828C206.521 30.9198 206.852 30.5223 207.109 29.9863V24.5457H209.351V30.7391C209.351 30.974 209.394 31.1406 209.476 31.241C209.56 31.3414 209.697 31.3976 209.885 31.4076V33.3148C209.663 33.359 209.476 33.3871 209.325 33.3992C209.175 33.4092 209.038 33.4152 208.916 33.4152C208.514 33.4152 208.187 33.3229 207.936 33.1382C207.685 32.9535 207.536 32.7005 207.492 32.3773L207.442 31.6746C207.051 32.2769 206.549 32.7286 205.936 33.0298C205.322 33.3309 204.648 33.4815 203.911 33.4815L203.915 33.4835Z" fill="#FCB300"/>
<path d="M211.563 21.0967H213.805V30.5043C213.805 30.8275 213.883 31.0785 214.04 31.2571C214.197 31.4358 214.419 31.5241 214.708 31.5241C214.843 31.5241 214.99 31.5021 215.152 31.4579C215.315 31.4137 215.467 31.3575 215.612 31.2913L215.913 32.9977C215.612 33.1423 215.261 33.2547 214.859 33.333C214.458 33.4113 214.094 33.4494 213.771 33.4494C213.068 33.4494 212.524 33.2627 212.139 32.8893C211.753 32.5159 211.561 31.9819 211.561 31.2913V21.0967H211.563Z" fill="#FCB300"/>
<path d="M220.955 33.4834C220.253 33.4834 219.616 33.363 219.048 33.1241C218.48 32.8852 217.994 32.5579 217.593 32.1444C217.191 31.7308 216.882 31.251 216.663 30.7049C216.446 30.1588 216.336 29.5827 216.336 28.9804C216.336 28.3781 216.442 27.7678 216.653 27.2137C216.866 26.6616 217.171 26.1758 217.575 25.7582C217.976 25.3406 218.464 25.0073 219.04 24.7624C219.614 24.5175 220.259 24.395 220.973 24.395C221.688 24.395 222.327 24.5175 222.891 24.7624C223.455 25.0073 223.935 25.3366 224.33 25.7501C224.726 26.1637 225.027 26.6435 225.234 27.1896C225.44 27.7357 225.543 28.3058 225.543 28.8961C225.543 29.0406 225.541 29.1811 225.535 29.3136C225.529 29.4481 225.515 29.5586 225.493 29.6489H218.713C218.747 29.9942 218.829 30.3014 218.964 30.5704C219.098 30.8374 219.271 31.0663 219.482 31.257C219.695 31.4477 219.934 31.5923 220.203 31.6926C220.47 31.793 220.749 31.8432 221.04 31.8432C221.485 31.8432 221.907 31.7348 222.303 31.516C222.698 31.2971 222.969 31.0101 223.114 30.6547L225.039 31.1907C224.716 31.8613 224.2 32.4094 223.491 32.839C222.782 33.2686 221.937 33.4834 220.955 33.4834ZM223.232 28.1934C223.176 27.5349 222.933 27.0069 222.503 26.6114C222.074 26.2159 221.552 26.0172 220.937 26.0172C220.636 26.0172 220.355 26.0694 220.092 26.1758C219.829 26.2822 219.598 26.4287 219.398 26.6194C219.197 26.8102 219.032 27.037 218.904 27.306C218.775 27.573 218.701 27.8702 218.677 28.1934H223.23H223.232Z" fill="#FCB300"/>
<path d="M230.229 33.4834C229.492 33.4834 228.773 33.3669 228.069 33.132C227.366 32.8971 226.764 32.5639 226.26 32.1282L227.097 30.7229C227.633 31.1023 228.155 31.3894 228.663 31.5842C229.171 31.7789 229.675 31.8773 230.179 31.8773C230.624 31.8773 230.976 31.793 231.233 31.6263C231.49 31.4597 231.618 31.2188 231.618 30.9056C231.618 30.5924 231.467 30.3636 231.166 30.219C230.865 30.0745 230.373 29.9058 229.693 29.7171C229.125 29.5605 228.639 29.4099 228.237 29.2654C227.836 29.1208 227.513 28.9562 227.266 28.7715C227.021 28.5868 226.842 28.376 226.73 28.1351C226.617 27.8962 226.563 27.6071 226.563 27.2739C226.563 26.8282 226.649 26.4267 226.822 26.0693C226.995 25.7119 227.237 25.4088 227.551 25.1579C227.862 24.9069 228.229 24.7142 228.647 24.5797C229.064 24.4452 229.52 24.3789 230.012 24.3789C230.67 24.3789 231.287 24.4733 231.861 24.664C232.435 24.8527 232.963 25.1599 233.443 25.5835L232.54 26.9386C232.094 26.6033 231.66 26.3584 231.243 26.2018C230.825 26.0452 230.407 25.9669 229.996 25.9669C229.616 25.9669 229.299 26.0452 229.042 26.2018C228.785 26.3584 228.657 26.6093 228.657 26.9546C228.657 27.1112 228.687 27.2397 228.749 27.3401C228.809 27.4405 228.908 27.5308 229.042 27.6071C229.177 27.6854 229.351 27.7597 229.57 27.834C229.787 27.9062 230.058 27.9825 230.381 28.0608C230.984 28.2174 231.5 28.374 231.929 28.5286C232.359 28.6852 232.71 28.8639 232.983 29.0646C233.256 29.2654 233.457 29.4963 233.585 29.7593C233.714 30.0223 233.778 30.3374 233.778 30.7048C233.778 31.5641 233.461 32.2427 232.825 32.7385C232.188 33.2344 231.323 33.4834 230.231 33.4834H230.229Z" fill="#FCB300"/>
<path d="M235.182 33.3147V30.9036H237.023V33.3147H235.182Z" fill="#FCB300"/>
<path d="M78.1604 46.3929V54.0097H75.8496V42.1248H77.6404L83.8338 49.9243V42.1408H86.1446V54.0077H84.2695L78.1604 46.3909V46.3929Z" fill="#FCB300"/>
<path d="M92.3378 54.1767C91.623 54.1767 90.9826 54.0543 90.4125 53.8093C89.8443 53.5644 89.3605 53.2312 88.965 52.8136C88.5695 52.396 88.2643 51.9122 88.0535 51.3661C87.8407 50.82 87.7363 50.2438 87.7363 49.6416C87.7363 49.0393 87.8427 48.447 88.0535 47.901C88.2663 47.3549 88.5695 46.8711 88.965 46.4535C89.3605 46.0359 89.8443 45.7027 90.4125 45.4577C90.9806 45.2128 91.623 45.0903 92.3378 45.0903C93.0525 45.0903 93.6909 45.2128 94.255 45.4577C94.8192 45.7027 95.299 46.0359 95.6945 46.4535C96.0899 46.8711 96.3951 47.3549 96.6059 47.901C96.8167 48.447 96.9231 49.0292 96.9231 49.6416C96.9231 50.2539 96.8167 50.82 96.6059 51.3661C96.3931 51.9142 96.092 52.396 95.7025 52.8136C95.313 53.2312 94.8332 53.5644 94.263 53.8093C93.6949 54.0543 93.0525 54.1767 92.3378 54.1767ZM90.0451 49.6396C90.0451 50.031 90.1033 50.3844 90.2197 50.7036C90.3362 51.0208 90.4988 51.2978 90.7056 51.5327C90.9124 51.7676 91.1553 51.9483 91.4343 52.0768C91.7134 52.2053 92.0145 52.2695 92.3378 52.2695C92.661 52.2695 92.9621 52.2053 93.2412 52.0768C93.5202 51.9483 93.7631 51.7676 93.9699 51.5327C94.1767 51.2978 94.3373 51.0188 94.4558 50.6955C94.5722 50.3723 94.6324 50.015 94.6324 49.6235C94.6324 49.232 94.5742 48.8927 94.4558 48.5695C94.3393 48.2463 94.1767 47.9672 93.9699 47.7323C93.7631 47.4974 93.5202 47.3168 93.2412 47.1883C92.9621 47.0598 92.661 46.9955 92.3378 46.9955C92.0145 46.9955 91.7134 47.0618 91.4343 47.1963C91.1553 47.3308 90.9124 47.5135 90.7056 47.7484C90.4988 47.9833 90.3382 48.2623 90.2197 48.5856C90.1033 48.9088 90.0451 49.2601 90.0451 49.6396Z" fill="#FCB300"/>
<path d="M103.571 53.5563C103.269 53.6909 102.9 53.8234 102.466 53.9579C102.031 54.0924 101.573 54.1586 101.093 54.1586C100.78 54.1586 100.487 54.1185 100.214 54.0422C99.9408 53.9639 99.6999 53.8394 99.4931 53.6648C99.2863 53.4921 99.1217 53.2693 98.9992 52.9962C98.8768 52.7232 98.8145 52.3899 98.8145 52.0005V46.9614H97.6602V45.2369H98.8145V42.3921H101.057V45.2369H102.898V46.9614H101.057V51.2456C101.057 51.5588 101.137 51.7796 101.3 51.9061C101.461 52.0346 101.659 52.0988 101.894 52.0988C102.129 52.0988 102.358 52.0587 102.581 51.9824C102.804 51.9041 102.982 51.8378 103.117 51.7816L103.569 53.5563H103.571Z" fill="#FCB300"/>
<path d="M108.977 54.008V42.123H114.232C114.779 42.123 115.284 42.2375 115.748 42.4663C116.212 42.6952 116.609 42.9963 116.945 43.3698C117.28 43.7432 117.541 44.1668 117.732 44.6426C117.92 45.1164 118.017 45.5942 118.017 46.074C118.017 46.8449 117.824 47.5456 117.439 48.1739C117.053 48.8043 116.531 49.2601 115.875 49.5391L118.587 54.008H115.993L113.566 50.025H111.289V54.008H108.979H108.977ZM111.285 47.9993H114.18C114.393 47.9993 114.59 47.9491 114.775 47.8487C114.959 47.7483 115.118 47.6118 115.252 47.4392C115.387 47.2665 115.491 47.0617 115.57 46.8289C115.648 46.594 115.686 46.343 115.686 46.076C115.686 45.809 115.642 45.54 115.551 45.3071C115.461 45.0722 115.343 44.8694 115.192 44.6968C115.042 44.5241 114.869 44.3896 114.674 44.2953C114.479 44.2009 114.281 44.1527 114.08 44.1527H111.285V48.0033V47.9993Z" fill="#FCB300"/>
<path d="M122.45 54.1766C121.547 54.1766 120.86 53.8875 120.39 53.3073C119.92 52.7271 119.688 51.8679 119.688 50.7296V45.2388H121.93V50.2437C121.93 51.5948 122.416 52.2694 123.386 52.2694C123.821 52.2694 124.243 52.1389 124.648 51.8759C125.056 51.6129 125.387 51.2154 125.644 50.6794V45.2388H127.887V51.4322C127.887 51.6671 127.929 51.8337 128.011 51.9341C128.095 52.0345 128.232 52.0907 128.421 52.1007V54.008C128.198 54.0521 128.011 54.0802 127.86 54.0923C127.71 54.1023 127.573 54.1083 127.451 54.1083C127.049 54.1083 126.722 54.016 126.471 53.8313C126.22 53.6466 126.072 53.3936 126.027 53.0704L125.977 52.3678C125.586 52.97 125.084 53.4217 124.472 53.7229C123.857 54.024 123.183 54.1746 122.446 54.1746L122.45 54.1766Z" fill="#FCB300"/>
<path d="M130.1 41.7898H132.342V51.1974C132.342 51.5206 132.42 51.7716 132.577 51.9502C132.734 52.1289 132.956 52.2173 133.246 52.2173C133.38 52.2173 133.527 52.1952 133.689 52.151C133.852 52.1068 134.004 52.0506 134.149 51.9844L134.45 53.6908C134.149 53.8354 133.798 53.9478 133.396 54.0261C132.995 54.1044 132.631 54.1426 132.308 54.1426C131.605 54.1426 131.061 53.9558 130.676 53.5824C130.29 53.209 130.098 52.675 130.098 51.9844V41.7898H130.1Z" fill="#FCB300"/>
<path d="M139.489 54.1765C138.786 54.1765 138.15 54.0561 137.581 53.8172C137.013 53.5783 136.527 53.251 136.126 52.8375C135.724 52.4239 135.415 51.9441 135.196 51.398C134.98 50.8519 134.869 50.2758 134.869 49.6735C134.869 49.0712 134.976 48.4609 135.186 47.9068C135.399 47.3547 135.704 46.8689 136.108 46.4513C136.509 46.0337 136.997 45.7005 137.573 45.4555C138.148 45.2106 138.792 45.0881 139.507 45.0881C140.221 45.0881 140.86 45.2106 141.424 45.4555C141.988 45.7005 142.468 46.0297 142.863 46.4433C143.259 46.8568 143.56 47.3367 143.767 47.8827C143.974 48.4288 144.076 48.9989 144.076 49.5892C144.076 49.7337 144.074 49.8742 144.068 50.0068C144.062 50.1413 144.048 50.2517 144.026 50.342H137.246C137.28 50.6873 137.363 50.9945 137.497 51.2635C137.632 51.5305 137.804 51.7594 138.015 51.9501C138.228 52.1408 138.467 52.2854 138.736 52.3858C139.003 52.4861 139.282 52.5363 139.573 52.5363C140.019 52.5363 140.44 52.4279 140.836 52.2091C141.231 51.9903 141.502 51.7032 141.647 51.3478L143.572 51.8839C143.249 52.5544 142.733 53.1025 142.024 53.5321C141.316 53.9617 140.47 54.1765 139.489 54.1765ZM141.765 48.8865C141.709 48.228 141.466 47.7 141.036 47.3045C140.607 46.909 140.085 46.7103 139.471 46.7103C139.169 46.7103 138.888 46.7625 138.625 46.8689C138.362 46.9753 138.131 47.1218 137.931 47.3126C137.73 47.5033 137.565 47.7301 137.437 47.9992C137.308 48.2662 137.234 48.5633 137.21 48.8865H141.763H141.765Z" fill="#FCB300"/>
<path d="M150.671 47.1784C149.99 47.1904 149.382 47.3209 148.846 47.5719C148.31 47.8228 147.927 48.2003 147.692 48.7022V54.0082H145.449V45.237H147.507V47.1121C147.664 46.811 147.848 46.54 148.059 46.3011C148.27 46.0622 148.501 45.8514 148.746 45.6727C148.991 45.494 149.24 45.3575 149.491 45.2631C149.741 45.1688 149.984 45.1206 150.219 45.1206H150.496C150.557 45.1206 150.617 45.1266 150.671 45.1367V47.1784Z" fill="#FCB300"/>
<path d="M155.242 54.1767C154.506 54.1767 153.787 54.0603 153.082 53.8254C152.38 53.5905 151.777 53.2572 151.273 52.8216L152.111 51.4163C152.647 51.7957 153.169 52.0828 153.677 52.2775C154.184 52.4723 154.688 52.5706 155.192 52.5706C155.638 52.5706 155.989 52.4863 156.246 52.3197C156.503 52.1531 156.632 51.9121 156.632 51.599C156.632 51.2858 156.481 51.0569 156.18 50.9124C155.879 50.7678 155.387 50.5992 154.706 50.4105C154.138 50.2539 153.652 50.1033 153.251 49.9588C152.849 49.8142 152.526 49.6496 152.279 49.4649C152.034 49.2802 151.856 49.0694 151.743 48.8285C151.631 48.5896 151.577 48.3005 151.577 47.9672C151.577 47.5215 151.663 47.12 151.836 46.7627C152.008 46.4053 152.251 46.1022 152.564 45.8512C152.876 45.6003 153.243 45.4075 153.66 45.273C154.078 45.1385 154.534 45.0723 155.026 45.0723C155.684 45.0723 156.3 45.1666 156.875 45.3573C157.449 45.5461 157.977 45.8532 158.457 46.2768L157.553 47.632C157.108 47.2967 156.674 47.0517 156.256 46.8952C155.839 46.7386 155.421 46.6603 155.01 46.6603C154.63 46.6603 154.313 46.7386 154.056 46.8952C153.799 47.0517 153.67 47.3027 153.67 47.648C153.67 47.8046 153.701 47.9331 153.763 48.0335C153.823 48.1339 153.921 48.2242 154.056 48.3005C154.191 48.3788 154.365 48.4531 154.584 48.5273C154.801 48.5996 155.072 48.6759 155.395 48.7542C155.997 48.9108 156.513 49.0674 156.943 49.222C157.373 49.3786 157.724 49.5572 157.997 49.758C158.27 49.9588 158.471 50.1896 158.599 50.4526C158.728 50.7156 158.792 51.0308 158.792 51.3982C158.792 52.2575 158.475 52.936 157.838 53.4319C157.202 53.9278 156.337 54.1767 155.244 54.1767H155.242Z" fill="#FCB300"/>
<path d="M160.195 54.008V51.5969H162.036V54.008H160.195Z" fill="#FCB300"/>
<path d="M54.4011 29.5963C53.9623 28.8273 53.4702 28.0929 52.9302 27.3979C56.5942 22.8824 59.7144 18.6881 60.7592 16.6191C58.7776 17.713 54.6626 20.92 50.2685 24.6212C49.6438 24.0919 48.984 23.603 48.2922 23.1588C50.653 20.159 52.5478 17.5276 53.2705 16.0967C51.7922 16.9125 48.9121 19.1173 45.7035 21.7731C43.4343 20.7821 40.9276 20.2319 38.2931 20.2319C28.0585 20.2319 19.7619 28.5285 19.7619 38.7631C19.7619 41.5665 20.3845 44.2244 21.4985 46.6065C19.1867 49.5222 17.3159 52.079 16.6172 53.4434C17.8596 52.7671 20.1512 51.0437 22.7831 48.9093C23.2916 49.6857 23.8577 50.4212 24.4739 51.1108C21.1961 55.1694 18.4358 58.8616 17.4911 60.7058C19.306 59.7179 23.0158 56.8389 27.0381 53.4876C27.7848 54.0596 28.5767 54.5756 29.4069 55.0299C27.3694 57.6207 25.7414 59.866 25.1114 61.0967C26.4214 60.3836 28.95 58.4542 31.7906 56.1221C33.8138 56.8805 36.0047 57.2953 38.2925 57.2953C48.5271 57.2953 56.8237 48.9987 56.8237 38.7642C56.8237 36.3661 56.3684 34.074 55.5387 31.9704C57.7466 29.1575 59.5131 26.6982 60.1937 25.3508C59.0056 26.0064 56.8722 27.5992 54.4006 29.5974L54.4011 29.5963Z" fill="#FCB300"/>
<path d="M38.2936 51.852C45.5222 51.852 51.3821 45.9921 51.3821 38.7635C51.3821 31.535 45.5222 25.675 38.2936 25.675C31.065 25.675 25.2051 31.535 25.2051 38.7635C25.2051 45.9921 31.065 51.852 38.2936 51.852Z" fill="#1E1E1E"/>
<path d="M43.8484 34.9591C43.9102 34.9586 44.3165 34.9533 44.5013 34.6774C44.6067 34.5198 44.6025 34.3307 44.5977 34.2647C44.5828 34.0661 44.488 33.9244 44.4395 33.8541C43.9384 33.1245 43.5598 32.7112 43.5598 32.7112C43.3664 32.5004 43.0368 32.1404 42.8861 31.9758C41.9312 30.9906 41.0136 30.2375 40.2531 29.68C40.1568 29.6091 38.4915 28.3986 36.6371 27.5556C36.202 27.358 35.8474 27.1972 35.556 27.0715C35.2594 27.1131 35.0171 27.1301 34.8536 27.1381C34.6465 27.1482 34.5889 27.1424 34.066 27.1514C34.0127 27.1525 33.7896 27.1557 33.518 27.1637C33.0685 27.1764 32.8438 27.1834 32.7532 27.1914C32.5551 27.2089 32.1861 27.2419 31.8319 27.3703C31.6498 27.4363 30.9474 27.6904 30.581 28.3944C30.581 28.3944 30.3003 28.9328 30.3679 29.7556C30.3797 29.9004 30.4079 30.0314 30.4089 30.0373C30.4718 30.327 30.581 30.5294 30.6427 30.6423C30.6875 30.7243 30.7349 30.7994 30.7833 30.8697C30.819 30.9187 30.8653 30.9805 30.9207 31.0497C30.9708 31.112 31.0097 31.1573 31.039 31.1903C31.1476 31.316 31.2035 31.3799 31.2717 31.4315C31.2823 31.4395 31.2706 31.4369 31.3856 31.5082C31.4911 31.5732 31.6221 31.6547 31.7856 31.8389C31.9368 32.0099 32.0753 32.1808 32.1291 32.3784C32.3538 32.2714 32.562 32.0605 32.6158 31.7841C32.6856 31.4262 32.4609 31.1392 32.4199 31.088C32.3735 31.0816 32.2931 31.0673 32.2026 31.0284C31.5545 30.7515 31.1769 29.5894 31.6008 28.8465C31.8117 28.4764 32.1605 28.3177 32.2036 28.2985C33.2267 27.8523 34.6188 28.8412 35.318 29.6597C35.7659 30.1843 35.9906 30.7099 36.1019 31.0209C36.202 30.9799 36.3288 30.9341 36.4779 30.8958C36.4779 30.8958 36.725 30.8324 36.9886 30.8148C37.8966 30.7536 39.3601 31.5434 39.3601 31.5434C39.8702 31.8187 40.2255 32.0663 40.6179 32.3406C41.0648 32.6527 41.4919 32.9509 41.9722 33.3855C43.0288 34.3414 43.2514 34.9671 43.8489 34.9597L43.8484 34.9591Z" fill="#FCB300"/>
<path d="M47.7579 32.2102C47.9922 32.8562 48.186 33.5219 48.3346 34.1923C48.4502 34.0203 48.5514 33.8393 48.6355 33.6518C48.8102 33.2646 48.9156 32.8519 48.9508 32.4232C48.9508 32.3369 48.9465 32.2448 48.9359 32.1479C48.914 31.9402 48.8709 31.7618 48.8256 31.6185C48.9497 31.4172 49.1089 31.1227 49.2384 30.7457C49.3406 30.4464 49.5068 29.9607 49.4658 29.4074C49.4551 29.2662 49.3449 28.01 48.4204 27.5493C48.186 27.4327 47.9421 27.3879 47.6977 27.3879C47.2498 27.3879 46.8003 27.5381 46.4047 27.6729C46.0675 27.7879 45.8018 27.9232 45.6191 28.0275C45.8098 28.3465 46.0755 28.8008 46.378 29.3546C46.9463 30.3942 47.3808 31.1738 47.7579 32.2112V32.2102ZM48.0699 29.3184C48.1988 28.7039 48.3213 28.5686 48.4241 28.4967C48.472 28.4632 48.5647 28.3987 48.6818 28.4072C48.9657 28.4275 49.1302 28.8562 49.1595 28.9334C49.3193 29.3488 49.2234 29.737 49.0807 30.2669C49.0072 30.538 48.8885 30.9049 48.6888 31.3219C48.5567 31.0306 48.4379 30.8112 48.3517 30.6621C48.2979 30.5689 48.2169 30.4331 48.1109 30.2291C48.0492 30.1098 48.0012 30.0102 47.9698 29.9437C47.998 29.688 48.0364 29.4755 48.0694 29.3179L48.0699 29.3184Z" fill="#FCB300"/>
<path d="M45.8299 40.7553C45.7894 40.7553 45.75 40.7553 45.7111 40.7553C45.308 40.7532 44.2376 40.7479 43.3642 39.9331C42.9616 39.5571 42.7256 39.1268 42.5866 38.7529L42.5781 38.754C42.5904 38.8909 42.6069 39.0757 42.6191 39.2178C42.6862 39.9773 42.7235 40.4118 42.7326 40.5173C42.7698 40.9375 42.8508 41.5707 43.043 42.484C43.2262 43.2636 43.1341 43.4506 43.3514 43.6625C43.4984 43.8058 43.754 43.8425 44.1896 43.8425C44.3792 43.8425 44.6034 43.8356 44.8676 43.8271C45.9332 43.7935 46.1638 43.6343 46.2804 43.4756C46.3331 43.4037 46.3853 43.2791 46.4897 43.0298C46.6255 42.7066 46.7001 42.4595 46.7235 42.3839C46.8939 41.8268 47.1165 41.5872 47.3764 41.0642C47.5069 40.8017 47.6576 40.4454 47.7795 39.99C47.73 40.0529 47.6752 40.1147 47.6145 40.1743C47.0563 40.7212 46.3656 40.7564 45.8293 40.7564L45.8299 40.7553Z" fill="#1E1E1E"/>
<path d="M45.3438 44.1196C44.1482 44.273 43.5507 44.3491 43.1523 44.0392C42.9819 43.9066 43.0011 43.8288 42.8568 43.3218C42.7545 42.9634 42.7098 43.0145 42.5543 42.3994C42.484 42.1204 42.4989 41.8424 42.5442 41.2273C42.6081 40.3603 42.6368 40.2767 42.6581 40.266C42.6592 40.2655 42.6608 40.2655 42.6629 40.2644C42.8211 40.2186 42.9808 40.3353 43.0187 40.3624C43.1481 40.4562 43.1992 40.5946 43.2663 40.8061C43.4404 41.3562 43.5086 41.7135 43.5086 41.7135C43.5698 42.0362 43.5682 42.081 43.6215 42.3888C43.6545 42.5789 43.7067 42.8367 43.7919 43.1413C43.8851 43.1072 44.0236 43.0428 44.153 42.9176C44.1743 42.8968 44.2488 42.8228 44.3649 42.6252C44.4342 42.5076 44.5215 42.3409 44.5998 42.1268C44.7377 42.3291 44.7686 42.5065 44.7766 42.5991C44.7873 42.7179 44.7723 42.8287 44.7612 42.9139C44.7452 43.0358 44.7202 43.1365 44.6994 43.2079C44.7638 43.2089 44.8464 43.2095 44.9417 43.2063C45.0935 43.2009 45.2394 43.1967 45.4103 43.1668C45.5211 43.1477 45.6729 43.112 45.8492 43.0433C45.944 42.941 46.0702 42.7808 46.1687 42.5587C46.248 42.3797 46.2848 42.2173 46.3029 42.0948C46.3524 42.1609 46.4201 42.2684 46.4627 42.4144C46.5154 42.5944 46.5766 42.7483 46.5644 42.8372C46.6405 42.7642 46.6176 42.7552 46.648 42.7648C46.7838 42.8079 46.8301 43.292 46.6134 43.6398C46.5212 43.7873 46.3695 43.987 45.3432 44.1185L45.3438 44.1196Z" fill="white"/>
<path d="M43.7216 42.3176C43.7078 42.0061 43.6705 41.6956 43.6114 41.3942C43.5549 41.1076 43.4915 40.8941 43.4452 40.7375C43.3712 40.4878 43.3248 40.3786 43.3051 40.3317C43.2546 40.2114 43.196 40.0937 43.1305 39.9818L42.9648 39.699L43.2753 39.5947C43.4117 39.5489 43.7488 39.4365 43.9325 39.3843C43.9495 39.3795 43.9948 39.3667 44.0555 39.3572C44.112 39.3481 44.1823 39.3369 44.2552 39.3369C44.3436 39.3369 44.4187 39.3529 44.4847 39.3864C44.7995 39.5446 44.783 40.0026 44.7729 40.2758C44.7707 40.3285 44.7691 40.3679 44.7686 40.3759L44.7675 40.3919C44.726 40.9852 44.6988 41.3771 44.5407 41.809C44.4586 42.0332 44.3468 42.2505 44.2083 42.455L43.7578 43.1196L43.7216 42.3176Z" fill="white"/>
<path d="M44.2544 39.6038C44.2949 39.6038 44.3332 39.6092 44.3647 39.6251C44.518 39.7024 44.5148 40.0304 44.5063 40.2669C44.5047 40.3153 44.5031 40.351 44.5026 40.3579C44.4616 40.9459 44.4365 41.3181 44.2901 41.7181C44.2347 41.8693 44.1436 42.0759 43.9871 42.306C43.97 41.922 43.9216 41.5961 43.872 41.3432C43.8145 41.0502 43.7506 40.833 43.6995 40.662C43.626 40.4154 43.5781 40.2962 43.5499 40.2291C43.4817 40.0666 43.4119 39.9377 43.3592 39.8477C43.438 39.8211 43.8119 39.6954 44.0036 39.6417C44.0196 39.6374 44.052 39.6283 44.0962 39.6209C44.1463 39.6129 44.2022 39.6038 44.2544 39.6038ZM44.2544 39.0713C44.1607 39.0713 44.0755 39.0846 44.0132 39.0947C43.9344 39.1075 43.8768 39.124 43.8577 39.1293C43.6777 39.1799 43.3613 39.2848 43.1893 39.3429L42.5684 39.5516L42.9001 40.1167C42.9598 40.2184 43.013 40.3254 43.0594 40.4346C43.0775 40.4772 43.1195 40.5779 43.1893 40.8133C43.234 40.964 43.2958 41.1706 43.3496 41.4454C43.4061 41.734 43.4417 42.0312 43.4551 42.3294L43.527 43.9335L44.4275 42.6042C44.5782 42.3822 44.7002 42.1452 44.7896 41.9007C44.9606 41.4337 44.9904 41.005 45.0319 40.4112L45.033 40.3947C45.0346 40.3696 45.0373 40.2999 45.0378 40.286C45.0495 39.9708 45.0708 39.3839 44.6032 39.149C44.5005 39.0974 44.3833 39.0713 44.2539 39.0713H44.2544Z" fill="#1E1E1E"/>
<path d="M40.4323 37.8259C40.6038 37.6001 40.8259 37.3477 41.1087 37.0985C41.2557 36.9691 41.4 36.8578 41.5368 36.7619C41.2258 36.4786 40.8248 36.1335 40.3397 35.7639C40.1245 35.5999 39.4349 35.0828 38.4113 34.4853C37.3888 33.8883 36.8121 33.5517 36.0281 33.3493C35.7922 33.2881 35.3758 33.1975 34.9156 33.1246C34.5247 33.0623 34.2872 33.0245 33.9565 33.0111C33.5523 32.9946 33.237 33.0314 32.6054 33.1038C32.0574 33.1667 31.8742 33.2146 31.7273 33.2625C31.4391 33.3562 31.2133 33.475 31.0584 33.5682C31.0206 33.4777 30.9167 33.1938 31.0275 32.8775C31.0568 32.7944 31.1249 32.6032 31.2922 32.493C31.2671 32.4616 31.2341 32.4216 31.1878 32.3689C31.1026 32.2725 31.0509 32.2411 30.9662 32.1884C30.8203 32.0978 30.4438 31.8667 30.2643 31.667C27.821 34.1455 27.2325 34.9997 27.109 35.2969C27.0914 35.3389 27.085 35.8486 26.8411 36.3178C26.7745 36.4461 26.7287 36.5271 26.6968 36.5856C26.5434 36.8652 26.4241 37.1272 26.0263 38.1119C25.842 38.5688 25.7201 38.8772 25.6136 39.3181C25.6136 39.3181 25.4645 39.937 25.5827 39.978C25.6594 40.0046 25.9842 39.7362 26.0316 39.7261C26.0316 39.7261 26.0332 39.7261 26.0348 39.7255C26.0503 39.7224 26.0828 39.7085 26.0982 39.7085C26.1019 39.7085 26.1046 39.7096 26.1062 39.7112C26.1136 39.7234 26.0615 39.7666 26.054 39.7729C25.9773 39.839 25.8458 40.0973 25.7973 40.4855C25.7387 40.9557 25.8303 41.3914 25.883 41.5975C25.9789 41.4771 26.1126 41.3312 26.2915 41.189C26.4683 41.0479 26.6387 40.9509 26.7761 40.8849C26.6478 41.3046 26.5695 41.6736 26.5194 41.9681C26.3959 42.6977 26.2707 43.4832 26.5194 44.3816C26.6276 44.772 26.7788 45.0851 26.9093 45.3131C27.0041 45.2241 27.0994 45.1357 27.1942 45.0468C27.208 45.2018 27.2379 45.4169 27.3082 45.6646C27.3827 45.926 27.4951 46.1998 27.5931 46.3585C27.984 46.989 28.95 47.0929 29.1231 47.1094C29.2834 45.9415 29.6205 45.0553 29.883 44.4866C30.6712 42.7803 31.8034 41.7402 32.6198 40.9898C33.0821 40.5654 33.5097 40.1766 34.1781 39.7735C34.758 39.4241 35.6703 38.8745 36.9526 38.7473C37.0703 38.7355 37.1742 38.7291 37.2775 38.7291C37.3015 38.7291 37.3254 38.7291 37.3499 38.7302C37.548 38.7361 37.7318 38.7457 37.9304 38.767C39.265 38.9107 40.8802 39.4896 40.8802 39.4896C41.4165 39.6755 41.5193 39.7357 41.597 39.7868C41.6194 39.8017 41.6407 39.8171 41.6625 39.8326C41.5123 39.4827 41.3233 39.0844 41.0235 38.6232C40.7966 38.2743 40.582 38.0049 40.4318 37.8275L40.4323 37.8259Z" fill="#FCB300"/>
<path d="M49.9142 34.2886C49.7608 34.0836 49.6479 33.9179 49.4855 33.6746C49.4477 33.7773 49.4078 33.8796 49.3625 33.9797C49.2656 34.1954 49.15 34.4036 49.0195 34.6023C49.1394 34.7061 49.223 34.8004 49.2757 34.86C49.4967 35.1114 49.6304 35.3548 49.7033 35.5145C49.845 35.8245 49.9227 36.1568 49.9361 36.5029C49.9558 36.5173 49.9749 36.5328 49.992 36.5503C50.0591 36.5652 50.1395 36.577 50.2295 36.577C50.287 36.577 50.3477 36.5722 50.4122 36.561C50.4713 36.5503 50.5251 36.5354 50.5725 36.5189C50.5336 36.4268 50.4894 36.3304 50.4398 36.2308C50.3861 36.1238 50.3312 36.0242 50.2774 35.932C50.3786 35.8862 50.4814 35.8378 50.5858 35.7872C50.6854 35.7387 50.7828 35.6903 50.8771 35.6413C50.8222 35.5443 50.7381 35.4011 50.6289 35.2339C50.4015 34.8861 50.2875 34.7881 49.9137 34.2886H49.9142Z" fill="#FCB300"/>
<path d="M46.9459 42.2518C46.9459 42.2518 46.9677 42.2246 46.9768 42.1772L46.4538 42.0766C46.514 41.7635 46.5401 41.4482 46.5305 41.1398C46.5257 40.9843 46.5118 40.8347 46.4895 40.6957C46.4788 40.6307 46.4682 40.5652 46.4527 40.5162C46.4506 40.5088 46.4474 40.5013 46.4447 40.4939C46.4218 40.4326 46.3787 40.3181 46.4187 40.1791C46.5065 39.874 46.8287 39.8463 47.1706 39.817L47.2074 39.8133C47.2505 39.809 47.299 39.8042 47.3511 39.8042C47.4172 39.8042 47.4758 39.8122 47.5301 39.8282C47.9013 39.9368 47.7783 40.4518 47.7261 40.6717C47.7202 40.6957 47.7085 40.7442 47.7085 40.7442C47.5945 41.2037 47.3682 41.6703 47.0172 42.1703C46.9991 42.1959 46.98 42.2161 46.9635 42.2337C46.9576 42.2396 46.9517 42.2454 46.9464 42.2518H46.9459Z" fill="white"/>
<path d="M47.3503 40.0706C47.386 40.0706 47.4212 40.0738 47.4547 40.084C47.5724 40.1186 47.5069 40.4413 47.4664 40.6101C47.4595 40.6383 47.4537 40.6628 47.4494 40.6804C47.3237 41.1858 47.0644 41.6395 46.7986 42.0177C46.7789 42.0459 46.7219 42.0906 46.715 42.1274C46.7779 41.7998 46.8066 41.4617 46.7965 41.132C46.7917 40.9696 46.7773 40.8088 46.7518 40.6527C46.74 40.5798 46.7273 40.5041 46.7065 40.437C46.6895 40.3817 46.6538 40.322 46.674 40.2522C46.7102 40.1255 46.8892 40.1079 47.1927 40.0813C47.2433 40.077 47.2976 40.0696 47.3509 40.0696" fill="#1E1E1E"/>
<path d="M48.9768 35.847C48.9353 35.7559 48.841 35.5759 48.6759 35.3879C48.6141 35.3176 48.521 35.2116 48.3724 35.1099C48.2302 35.0125 48.0704 34.9422 47.8984 34.9001L47.6524 34.8399L47.6012 34.5918C47.4548 33.8781 47.2545 33.1682 47.0053 32.4823C46.8099 31.9439 46.4456 30.9411 45.7038 29.7844C45.1749 28.96 44.4997 28.149 43.7509 27.4391C43.0463 26.7713 42.2651 26.1833 41.4274 25.687C41.062 25.597 40.2851 25.4377 39.2594 25.4377C38.5314 25.4377 37.6788 25.5182 36.7596 25.7605C36.7308 25.7679 36.7021 25.7759 36.6738 25.7839C38.3104 26.4198 40.6791 27.6313 42.7406 29.9469C43.5246 30.8277 44.121 31.7075 44.5763 32.5042C44.8858 32.9606 45.0663 33.3775 45.1744 33.6795C45.2703 33.9474 45.3821 34.2696 45.4013 34.7105C45.4103 34.9171 45.3965 35.0908 45.3805 35.2159C45.1062 35.2782 44.5433 35.4454 44.0294 35.9274C43.8547 36.0914 43.5134 36.4189 43.3328 36.9637C43.0772 37.7359 43.3195 38.4165 43.4106 38.6397C43.4079 38.6397 43.4047 38.6402 43.4021 38.6407C43.5096 38.8751 43.6689 39.1254 43.9069 39.3474C44.5513 39.9492 45.3358 39.9529 45.7123 39.9551C46.1692 39.9577 46.6874 39.9599 47.0532 39.602C47.2689 39.3906 47.3669 39.1243 47.4106 38.9038C47.4015 38.8889 47.3935 38.874 47.384 38.8591C47.2716 38.6817 47.1384 38.538 46.9797 38.4027C46.8637 38.3036 46.7364 38.1982 46.583 38.1646C46.4578 38.1375 46.3205 38.1566 46.1926 38.1455C45.9146 38.121 45.658 37.9985 45.5866 37.7093C45.52 37.4398 45.5951 37.2194 45.7432 37.0447C45.9818 36.764 46.3641 36.6224 46.7145 36.5462C47.5001 36.3753 48.3266 36.4078 49.1275 36.387C49.1057 36.1979 49.0551 36.0163 48.9768 35.8454V35.847Z" fill="white"/>
<path d="M48.1241 39.4405C48.1092 39.4463 48.0943 39.4522 48.0794 39.458C48.0623 39.5012 48.0437 39.5449 48.0234 39.5885C48.0996 39.6141 48.1907 39.6338 48.2924 39.6338C48.327 39.6338 48.3627 39.6317 48.3994 39.6263C48.5927 39.5992 48.7658 39.5007 48.9698 39.2892C49.2707 38.9788 49.4629 38.607 49.5918 38.2534C49.2249 38.7796 48.7078 39.2157 48.1246 39.4405H48.1241Z" fill="white"/>
<path d="M51.5743 35.2477C51.488 35.0954 51.3954 34.9437 51.2995 34.7967C51.1456 34.5613 51.0306 34.4175 50.8974 34.2508C50.8064 34.1363 50.7031 34.0069 50.5555 33.8099C50.3889 33.5867 50.2733 33.4136 50.0635 33.0984L50.0406 33.0638C49.941 32.9141 49.8425 32.7629 49.7455 32.6111C49.7482 32.5621 49.7493 32.5131 49.7498 32.4641C49.7557 32.3879 49.7599 32.3107 49.762 32.2335H49.7445C49.7413 32.1765 49.737 32.1195 49.7312 32.0631C49.7194 31.9523 49.7024 31.8421 49.6806 31.7324C49.8041 31.4975 49.9096 31.2531 49.9953 31.0028C50.1077 30.6747 50.3164 30.0634 50.2637 29.3471C50.2408 29.0393 50.0629 27.4725 48.7774 26.8324C48.4509 26.6694 48.0877 26.5869 47.6984 26.5869C47.1089 26.5869 46.5534 26.7765 46.1476 26.9144C46.0145 26.9597 45.8829 27.0108 45.7535 27.0667C45.3946 26.7589 44.8684 26.3542 44.2017 25.9686C43.1371 25.3535 42.1631 25.0547 41.7935 24.9546C41.7743 24.9493 41.7551 24.9445 41.736 24.9397C41.6662 24.9221 41.5959 24.9051 41.5261 24.8875C40.8301 24.7256 40.0371 24.6372 39.2623 24.6372C38.3468 24.6372 37.4372 24.7549 36.5585 24.9866C35.781 25.1916 35.0253 25.4872 34.3128 25.8642L33.3627 26.3669C32.9643 26.3786 32.787 26.384 32.6837 26.3936C32.4659 26.4127 32.0132 26.4532 31.5616 26.6167C30.5886 26.9692 30.1067 27.5764 29.8739 28.0232C29.834 28.1004 29.4894 28.7986 29.5731 29.8184C29.5885 30.009 29.6231 30.1736 29.63 30.2045C29.719 30.613 29.8766 30.9005 29.9437 31.0236C29.9661 31.0646 30.0492 31.1146 30.0135 31.145C27.3576 33.3961 25.7291 36.046 25.1124 39.186C25.089 39.3037 25.0245 39.4123 24.9819 39.5257L24.3828 41.1165L24.9835 40.9098C24.9947 41.2565 25.0528 41.5649 25.1108 41.7912L25.5081 43.3516L25.5789 43.2626C25.5768 43.6738 25.621 44.1174 25.752 44.5913C25.859 44.978 26.0156 45.3534 26.2185 45.707L26.7202 46.582L26.782 46.524C26.8262 46.6172 26.8714 46.7024 26.9167 46.7759C27.4663 47.6626 28.5926 47.858 29.0512 47.9012L29.8132 47.9725L29.9171 47.2142C30.0332 46.3701 30.2664 45.5638 30.611 44.8182C31.3326 43.2573 32.3902 42.2849 33.163 41.5744C33.5832 41.1883 33.9799 40.8236 34.5929 40.4545C35.1254 40.1334 35.9306 39.6482 37.0341 39.539C37.1315 39.5295 37.2098 39.5247 37.2801 39.5247C37.2966 39.5247 37.3126 39.5247 37.3291 39.5252C37.5379 39.5316 37.6929 39.5412 37.8478 39.5577C39.07 39.6898 40.599 40.233 40.6144 40.2383L40.7449 40.2851H40.7476C41.0628 40.3975 41.1411 40.4375 41.1603 40.4502C41.4734 40.6569 41.6391 40.9838 41.8739 41.4972C41.9815 41.7321 42.1349 42.1177 42.2568 42.6209C42.3271 42.9101 42.3543 43.1077 42.3766 43.2664C42.4187 43.5683 42.4666 43.9107 42.7947 44.2313C43.1797 44.6073 43.7176 44.6393 44.191 44.6393C44.3934 44.6393 44.6256 44.6318 44.894 44.6238C45.8643 44.5935 46.5422 44.4694 46.9262 43.9459C47.0349 43.7978 47.0993 43.6439 47.2282 43.3367C47.3773 42.9809 47.4609 42.7077 47.4881 42.6182L47.4891 42.6151C47.5727 42.3419 47.6718 42.1714 47.8097 41.9355C47.8944 41.7896 47.9908 41.6245 48.0936 41.4173C48.2501 41.1026 48.3822 40.7687 48.4887 40.4199C48.4972 40.4188 48.5058 40.4177 48.5143 40.4167C49.0117 40.3464 49.3419 40.0561 49.5474 39.8442C50.3287 39.0374 50.5241 37.9771 50.6184 37.4674C50.6269 37.4211 50.6349 37.3748 50.6429 37.3284C50.71 37.313 50.7766 37.2938 50.8415 37.2714L51.6451 36.9903L51.3522 36.2974L51.9876 35.9704L51.5775 35.2467L51.5743 35.2477ZM46.4043 27.6717C46.8469 27.5103 47.2362 27.3868 47.6973 27.3868C47.9418 27.3868 48.1857 27.4315 48.42 27.5481C49.3445 28.0088 49.4553 29.2651 49.4654 29.4062C49.5059 29.9601 49.3403 30.4452 49.238 30.7445C49.1091 31.1215 48.9499 31.4166 48.8253 31.6173C48.8706 31.7606 48.9137 31.939 48.9355 32.1467C48.9456 32.2436 48.9499 32.3358 48.9504 32.422C48.9153 32.8507 48.8098 33.2635 48.6352 33.6506C48.5505 33.8381 48.4493 34.0192 48.3343 34.1912C48.1255 33.3907 47.9216 32.7187 47.7575 32.209C47.5291 31.4975 47.2138 30.5256 46.6834 29.313C46.415 28.699 46.1668 28.1962 45.9841 27.841C46.0805 27.7974 46.2254 27.7356 46.4043 27.6701V27.6717ZM41.5975 39.7845C41.5203 39.7334 41.417 39.6732 40.8807 39.4874C40.8807 39.4874 39.2655 38.909 37.9309 38.7647C37.7323 38.7434 37.548 38.7338 37.3504 38.728C37.3265 38.7274 37.302 38.7269 37.278 38.7269C37.1747 38.7269 37.0708 38.7333 36.9531 38.745C35.6708 38.8723 34.7585 39.4219 34.1785 39.7712C33.5097 40.1744 33.082 40.5626 32.6203 40.9876C31.8039 41.7379 30.6722 42.778 29.8835 44.4843C29.621 45.0525 29.2839 45.9387 29.1236 47.1071C28.9505 47.0911 27.9845 46.9873 27.5936 46.3562C27.495 46.1975 27.3827 45.9243 27.3086 45.6623C27.2383 45.4147 27.2085 45.1995 27.1947 45.0445C27.0999 45.1335 27.0046 45.2219 26.9098 45.3108C26.7793 45.0829 26.628 44.7698 26.5199 44.3794C26.2712 43.4804 26.3964 42.6949 26.5199 41.9659C26.57 41.6714 26.6483 41.3023 26.7766 40.8827C26.6392 40.9487 26.4688 41.0456 26.292 41.1868C26.1131 41.3295 25.9794 41.4749 25.8835 41.5952C25.8308 41.3891 25.7398 40.954 25.7978 40.4833C25.8463 40.095 25.9773 39.8367 26.0545 39.7707C26.0619 39.7643 26.1141 39.7212 26.1067 39.7089C26.1056 39.7068 26.103 39.7063 26.0987 39.7063C26.0832 39.7063 26.0508 39.7201 26.0353 39.7233C25.9251 39.7467 25.8228 39.776 25.728 39.809C25.7605 39.735 25.793 39.661 25.8255 39.587C25.8351 39.5513 25.8489 39.5161 25.8548 39.4799C26.243 36.9759 27.666 34.0261 30.5039 31.8016C30.2925 31.9672 30.8203 32.0966 30.9662 32.1866C31.0514 32.2394 31.1025 32.2708 31.1877 32.3672C31.2341 32.4199 31.2676 32.4593 31.2921 32.4913C31.1254 32.6015 31.0567 32.7927 31.0274 32.8758C30.9167 33.1921 31.0205 33.476 31.0583 33.5665C31.2128 33.4733 31.4386 33.3551 31.7272 33.2608C31.8742 33.2129 32.0574 33.1655 32.6054 33.1021C33.2365 33.0291 33.5523 32.9929 33.9565 33.0094C34.2867 33.0227 34.5247 33.0606 34.9156 33.1229C35.3763 33.1964 35.7922 33.2869 36.0281 33.3476C36.812 33.55 37.3882 33.8871 38.4113 34.4835C39.4348 35.0811 40.1245 35.5982 40.3396 35.7622C40.8253 36.1318 41.2258 36.4769 41.5368 36.7602C41.3999 36.8561 41.2556 36.9679 41.1086 37.0968C40.8253 37.346 40.6032 37.5984 40.4323 37.8242C40.5825 38.0016 40.7971 38.2705 41.024 38.6199C41.3238 39.081 41.5128 39.4794 41.663 39.8293C41.6417 39.8138 41.6204 39.7984 41.5975 39.7835V39.7845ZM41.9719 33.3849C41.4915 32.9503 41.0644 32.6521 40.6176 32.34C40.2246 32.0658 39.8699 31.8176 39.3597 31.5428C39.3597 31.5428 37.8963 30.753 36.9883 30.8143C36.7247 30.8318 36.4776 30.8952 36.4776 30.8952C36.3285 30.9336 36.2017 30.9794 36.1016 31.0204C35.9908 30.7094 35.7656 30.1837 35.3177 29.6592C34.619 28.8406 33.2269 27.8517 32.2033 28.298C32.1602 28.3166 31.8119 28.4758 31.6005 28.846C31.1766 29.5889 31.5541 30.7504 32.2023 31.0278C32.2933 31.0667 32.3732 31.0811 32.4195 31.0875C32.4605 31.1386 32.6847 31.4256 32.6155 31.7835C32.5617 32.0599 32.3535 32.2708 32.1288 32.3778C32.0755 32.1803 31.9365 32.0088 31.7853 31.8384C31.6218 31.6541 31.4908 31.5731 31.3853 31.5076C31.2703 31.4363 31.282 31.4395 31.2714 31.431C31.2032 31.3793 31.1473 31.3154 31.0386 31.1897C31.0099 31.1567 30.971 31.1114 30.9204 31.0491C30.8645 30.9799 30.8187 30.9186 30.783 30.8691C30.7345 30.7994 30.6871 30.7237 30.6424 30.6417C30.5806 30.5288 30.4715 30.3264 30.4086 30.0367C30.4076 30.0309 30.3793 29.8993 30.3676 29.755C30.3005 28.9322 30.5806 28.3938 30.5806 28.3938C30.947 27.6898 31.6495 27.4352 31.8316 27.3697C32.1857 27.2414 32.5548 27.2084 32.7529 27.1908C32.8434 27.1828 33.0682 27.1764 33.5177 27.1631C33.7893 27.1551 34.0124 27.1519 34.0656 27.1508C34.5881 27.1418 34.6461 27.1471 34.8533 27.1375C35.0173 27.1295 35.2591 27.1125 35.5557 27.071C35.8476 27.1966 36.2022 27.3575 36.6368 27.5551C38.4911 28.3981 40.1559 29.6086 40.2528 29.6794C41.0133 30.237 41.9309 30.99 42.8858 31.9752C43.0365 32.1398 43.3661 32.4998 43.5594 32.7107C43.5594 32.7107 43.9381 33.1239 44.4392 33.8535C44.4871 33.9238 44.5819 34.0655 44.5974 34.2641C44.6022 34.3296 44.6064 34.5192 44.501 34.6769C44.3162 34.9527 43.9098 34.958 43.8481 34.9586C43.2505 34.966 43.0279 34.3403 41.9714 33.3844L41.9719 33.3849ZM47.3752 41.0632C47.1153 41.5862 46.8927 41.8258 46.7222 42.3829C46.6993 42.4585 46.6243 42.7056 46.4885 43.0288C46.3841 43.2781 46.3314 43.4027 46.2792 43.4746C46.1625 43.6338 45.9319 43.7931 44.8663 43.8261C44.6022 43.8346 44.3785 43.8415 44.1884 43.8415C43.7527 43.8415 43.4971 43.8048 43.3501 43.6615C43.1334 43.4496 43.225 43.2626 43.0418 42.483C42.8495 41.5691 42.7686 40.9365 42.7313 40.5163C42.7217 40.4114 42.685 39.9763 42.6179 39.2168C42.6051 39.0747 42.5891 38.8899 42.5769 38.753L42.5854 38.7519C42.7244 39.1258 42.9603 39.5561 43.3629 39.9321C44.2358 40.7469 45.3062 40.7522 45.7099 40.7543C45.7487 40.7543 45.7882 40.7543 45.8286 40.7543C46.3649 40.7543 47.0556 40.7192 47.6137 40.1722C47.6744 40.1126 47.7288 40.0508 47.7788 39.988C47.6563 40.4438 47.5062 40.7996 47.3757 41.0621L47.3752 41.0632ZM46.7159 36.5477C46.3654 36.6239 45.9831 36.7655 45.7445 37.0462C45.5964 37.2208 45.5213 37.4408 45.5879 37.7108C45.6593 38 45.916 38.1225 46.194 38.147C46.3218 38.1581 46.4592 38.1384 46.5843 38.1661C46.7372 38.1997 46.8644 38.3051 46.9811 38.4042C47.1398 38.5394 47.2729 38.6832 47.3853 38.8606C47.3943 38.8749 47.4028 38.8904 47.4119 38.9053C47.3682 39.1258 47.2702 39.3921 47.0546 39.6035C46.6892 39.9619 46.1711 39.9592 45.7136 39.9566C45.3365 39.9544 44.5526 39.9507 43.9082 39.3489C43.6702 39.1268 43.511 38.8765 43.4034 38.6422C43.4061 38.6422 43.4092 38.6417 43.4119 38.6412C43.3208 38.418 43.0785 37.7374 43.3342 36.9652C43.5147 36.421 43.8561 36.0929 44.0307 35.9289C44.5446 35.4469 45.107 35.2797 45.3818 35.2174C45.3973 35.0922 45.4116 34.9186 45.4026 34.712C45.3834 34.2705 45.2716 33.9489 45.1757 33.681C45.0676 33.3785 44.8871 32.962 44.5777 32.5056C44.1229 31.7089 43.5264 30.8292 42.742 29.9483C40.6805 27.6328 38.5694 26.3536 36.9329 25.7183C36.9329 25.7183 36.935 25.7178 36.9356 25.7178C37.2365 25.6304 37.5491 25.5681 38.0379 25.5154C38.3607 25.4808 38.7473 25.4387 39.2612 25.4392C39.797 25.4398 40.5436 25.4866 41.4292 25.6885C41.7674 25.8887 42.1562 26.139 42.5715 26.4484C42.8037 26.621 43.2527 26.9671 43.7527 27.4411C44.8493 28.4796 45.5166 29.4919 45.7056 29.7864C46.4469 30.9431 46.8112 31.9459 47.0072 32.4843C47.2564 33.1703 47.4566 33.8802 47.6031 34.5938L47.6542 34.8419L47.9002 34.9021C48.0723 34.9442 48.232 35.0145 48.3742 35.1119C48.5228 35.2137 48.616 35.3196 48.6778 35.3899C48.8429 35.5779 48.9371 35.7579 48.9787 35.849C49.0569 36.0199 49.107 36.2015 49.1294 36.3906C48.329 36.4114 47.5024 36.3789 46.7164 36.5498L46.7159 36.5477ZM48.9701 39.2898C48.7656 39.5007 48.5931 39.5992 48.3998 39.6269C48.363 39.6322 48.3274 39.6344 48.2927 39.6344C48.191 39.6344 48.1 39.6141 48.0238 39.5891C48.044 39.5454 48.0632 39.5018 48.0797 39.4586C48.0946 39.4528 48.1095 39.4469 48.1245 39.4411C48.7076 39.2168 49.2247 38.7807 49.5916 38.254C49.4633 38.6081 49.2705 38.9793 48.9696 39.2898H48.9701ZM50.5875 35.7872C50.4831 35.8378 50.3803 35.8863 50.2792 35.9321C50.3335 36.0237 50.3883 36.1233 50.4416 36.2308C50.4916 36.3304 50.5353 36.4268 50.5742 36.5189C50.5268 36.5355 50.473 36.5504 50.4139 36.561C50.35 36.5722 50.2887 36.577 50.2312 36.577C50.1412 36.577 50.0608 36.5653 49.9937 36.5504C49.9767 36.5328 49.9575 36.5173 49.9378 36.503C49.9245 36.1568 49.8467 35.8245 49.7051 35.5146C49.6321 35.3548 49.4984 35.1114 49.2774 34.86C49.2252 34.8004 49.1416 34.7061 49.0213 34.6023C49.1517 34.4037 49.2668 34.1954 49.3642 33.9797C49.4095 33.8796 49.4494 33.7774 49.4872 33.6746C49.6497 33.918 49.7626 34.0831 49.916 34.2886C50.2898 34.7882 50.4038 34.8861 50.6312 35.2339C50.7409 35.4017 50.8245 35.5444 50.8793 35.6413C50.7845 35.6898 50.6876 35.7388 50.588 35.7872H50.5875Z" fill="#1E1E1E"/>
<path d="M48.352 30.6623C48.4377 30.8114 48.5565 31.0309 48.6891 31.3222C48.8888 30.9046 49.0076 30.5382 49.0811 30.2672C49.2243 29.7373 49.3197 29.3491 49.1599 28.9337C49.1306 28.857 48.9655 28.4283 48.6822 28.4075C48.565 28.399 48.4724 28.4634 48.4244 28.497C48.3217 28.5683 48.1997 28.7041 48.0703 29.3187C48.0373 29.4763 47.9989 29.6888 47.9707 29.9444C48.0021 30.011 48.0495 30.1106 48.1118 30.2299C48.2178 30.4339 48.2988 30.5702 48.3525 30.6629L48.352 30.6623Z" fill="#1E1E1E"/>
<path d="M29.7693 35.3756C29.6148 35.4949 29.445 35.6419 29.2719 35.8203C29.069 36.0301 28.9082 36.2351 28.783 36.4172C29.02 36.3443 29.257 36.2708 29.4945 36.1978C29.3432 36.3741 29.1739 36.5978 29.0147 36.872C28.8709 37.1191 28.767 37.3513 28.6914 37.5526C28.9225 37.4365 29.1728 37.3205 29.4434 37.2097C29.6548 37.1229 29.8593 37.0462 30.0553 36.9791C29.9504 37.1985 29.8364 37.4871 29.7586 37.837C29.6702 38.2343 29.6564 38.5826 29.6654 38.8462C29.9237 38.8446 30.1927 38.8372 30.4712 38.8233C30.7524 38.8089 31.0234 38.7887 31.2828 38.7642C31.0549 39.0725 30.8216 39.4357 30.6097 39.8565C30.5362 40.0018 30.4707 40.144 30.411 40.283C30.7332 40.0226 31.1587 39.735 31.6923 39.4975C31.9123 39.3995 32.1232 39.3223 32.3202 39.2611C32.4187 39.2195 32.5332 39.1785 32.6626 39.1439C32.7665 39.1162 32.8634 39.0976 32.9513 39.0848C32.7675 39.2552 32.4912 39.5614 32.3245 40.0194C32.259 40.2 32.2233 40.3682 32.2046 40.5126C32.4129 40.274 32.7436 39.9518 33.2192 39.677C33.6313 39.4384 33.8326 39.4299 34.1953 39.2733C34.4829 39.1492 35.4814 38.7173 35.8899 37.7678C36.1913 37.0664 36.1082 36.2293 35.7589 35.5971C35.0644 34.3419 33.4993 34.2215 33.0514 34.1869C31.3062 34.0527 30.0563 35.1189 29.7698 35.3772L29.7693 35.3756Z" fill="#1E1E1E"/>
<path d="M31.0212 34.2306C30.8663 34.3494 30.6953 34.4953 30.5217 34.6727C30.3177 34.8814 30.1558 35.0854 30.0296 35.267C30.2671 35.1951 30.5047 35.1232 30.7422 35.0508C30.5899 35.226 30.42 35.4491 30.2586 35.7229C30.1138 35.9689 30.0089 36.2011 29.9316 36.4019C30.1633 36.2868 30.4141 36.1723 30.6852 36.0626C30.8972 35.9769 31.1017 35.9013 31.2982 35.8352C31.1922 36.0541 31.0766 36.3422 30.9967 36.6916C30.9062 37.0883 30.8908 37.4366 30.8988 37.7002C31.157 37.7002 31.426 37.6938 31.7045 37.681C31.9857 37.6683 32.2568 37.6491 32.5166 37.6257C32.2871 37.9329 32.0523 38.2945 31.8376 38.7147C31.7636 38.8596 31.697 39.0018 31.6369 39.1402C31.9607 38.8814 32.3872 38.5965 32.9224 38.3611C33.1429 38.2642 33.3543 38.188 33.5519 38.1279C33.6504 38.0868 33.7649 38.0464 33.8949 38.0123C33.9987 37.9851 34.0957 37.967 34.1841 37.9542C33.9998 38.1236 33.7213 38.4282 33.5525 38.8857C33.4859 39.0662 33.4497 39.234 33.4305 39.3783C33.6403 39.1408 33.9721 38.8202 34.4493 38.5475C34.8631 38.311 35.0644 38.3036 35.427 38.1486C35.7151 38.0256 36.7158 37.599 37.1291 36.6516C37.4342 35.9518 37.3554 35.1141 37.0087 34.4804C36.3207 33.2215 34.756 33.0931 34.3081 33.0564C32.5635 32.9136 31.3083 33.9734 31.0207 34.2301L31.0212 34.2306Z" fill="#FCB300"/>
<path d="M41.0947 33.7709C41.5628 34.14 41.8573 34.5277 42.0123 34.7577C42.1827 35.0102 42.2998 35.2413 42.3792 35.4181C42.2998 35.3739 42.1912 35.3547 42.0708 35.318C41.992 35.2935 41.8914 35.2908 41.8264 35.2807C41.698 35.4282 41.665 35.4703 41.4712 35.5225C41.2443 35.5837 41.0574 35.5592 40.9658 35.5326C40.5467 35.4106 40.299 35.0842 40.1734 34.9143C39.8373 34.4595 39.7542 33.9877 39.6973 33.666C39.6499 33.396 39.6392 33.1691 39.6387 33.0142C40.0029 33.1244 40.5467 33.339 41.0947 33.7709Z" fill="white"/>
<path d="M38.519 43.0883C37.472 42.8523 36.8026 42.9993 36.581 43.0552C36.409 43.0989 36.2503 43.1532 36.1055 43.2129C36.2136 43.2853 36.3717 43.3934 36.5592 43.5303C36.9368 43.8051 37.2041 44.0287 37.317 44.123C37.4635 44.245 37.554 44.3184 37.628 44.3776C37.628 44.3776 37.7479 44.474 37.8847 44.5789C38.0253 44.687 38.1366 44.7732 38.2682 44.8648C38.5941 45.0922 39.0595 45.3548 39.0782 45.3654C39.386 45.5353 39.9089 46.0945 40.8441 47.8695C41.4656 46.3608 41.4001 44.8031 40.5666 43.9627C40.0384 43.4302 39.2725 43.2576 38.519 43.0883Z" fill="white" stroke="#1E1E1E" stroke-width="1.20713" stroke-linecap="round" stroke-linejoin="round"/>
<path d="M37.5533 43.843C37.1182 43.7253 36.2251 43.5453 35.1579 43.7721C34.9369 43.819 34.758 43.8728 34.6387 43.9122C34.75 43.9963 34.9129 44.122 35.1057 44.2797C35.5211 44.6194 35.8092 44.8932 35.8816 44.9608C35.8816 44.9608 36.1314 45.1919 36.3897 45.4172C36.5212 45.5317 36.6277 45.6243 36.7534 45.7266C37.1635 46.061 37.679 46.421 37.7051 46.4386C38.0518 46.6772 38.5945 47.3408 39.4641 49.1775C39.5653 48.9943 40.5377 47.1719 39.6404 45.4683C39.2905 44.8042 38.7846 44.4005 38.4453 44.1806C38.1359 44.0006 37.8819 43.9324 37.5533 43.8435V43.843Z" fill="white" stroke="#1E1E1E" stroke-width="1.20713" stroke-linecap="round" stroke-linejoin="round"/>
<path d="M35.3655 44.9606C34.6769 44.7992 33.9005 44.5936 33.1975 44.9941C32.9323 45.1454 32.7549 45.3371 32.6484 45.4734C32.8039 45.54 33.0505 45.6497 33.3445 45.8025C33.7396 46.0081 33.9724 46.1567 35.3953 47.1195C35.8113 47.4012 36.077 47.5818 36.4301 47.863C36.666 48.0509 36.8556 48.2038 37.0729 48.4253C37.3157 48.6724 37.5932 49.0058 37.8493 49.4441C37.9441 49.2295 38.0613 48.9147 38.1321 48.5212C38.2008 48.1372 38.311 47.5919 38.105 47.0162C37.8573 46.326 37.3312 45.9341 36.9797 45.672C36.3342 45.1906 35.7117 45.0415 35.3644 44.9606H35.3655Z" fill="white" stroke="#1E1E1E" stroke-width="1.20713" stroke-linecap="round" stroke-linejoin="round"/>
<path d="M35.2696 47.1C35.1785 46.9402 35.048 46.6606 35.031 46.2969C35.0214 46.0886 34.9921 45.4022 35.49 45.0933C35.8282 44.8835 36.2952 44.9202 36.6856 45.162C36.6808 45.1061 36.6366 44.4542 37.1116 44.1038C37.3848 43.9025 37.6847 43.9073 37.8125 43.9116C38.5591 43.9345 39.0166 44.6124 39.0778 44.7067C38.9095 44.3637 38.9809 43.9595 39.2418 43.7193C39.4533 43.5244 39.7627 43.4621 40.0492 43.551C39.9075 43.2864 39.5598 42.7272 38.8818 42.3704C38.2753 42.0514 37.7209 42.0631 37.2006 42.0695C36.1696 42.0812 35.4341 42.4375 35.2685 42.5211C34.9884 42.6622 34.4148 42.9588 33.9387 43.575C33.8029 43.7507 32.6393 45.2531 33.3273 46.316C33.8785 47.1687 35.1716 47.1063 35.2685 47.1H35.2696Z" fill="#FCB300" stroke="#1E1E1E" stroke-width="1.20713" stroke-linecap="round" stroke-linejoin="round"/>
<path d="M51.6808 45.187C51.365 44.6417 50.8191 44.312 50.4948 44.1166C50.3643 44.0378 50.2525 43.9797 50.1758 43.9419C50.1896 44.0367 50.2093 44.1767 50.228 44.3466C50.2652 44.6885 50.2759 44.9458 50.2807 45.0544C50.2871 45.195 50.2919 45.2807 50.2961 45.3505C50.2961 45.3505 50.3031 45.4634 50.3137 45.5901C50.3244 45.7206 50.3329 45.8245 50.3483 45.9416C50.3739 46.1403 50.3824 46.2399 50.4767 46.6297C50.5411 46.8965 50.5171 47.4684 50.1827 48.7631C50.294 48.7167 51.6882 48.1134 51.9241 46.7314C51.9534 46.5588 52.0658 45.8516 51.6813 45.1875L51.6808 45.187Z" fill="white" stroke="#1E1E1E" stroke-width="1.20713" stroke-linecap="round" stroke-linejoin="round"/>
<path d="M50.46 44.9105C50.1064 44.0904 49.487 43.6377 49.29 43.4977C49.1547 43.4013 49.0338 43.3304 48.9454 43.282C48.9534 43.3896 48.9651 43.5472 48.9785 43.7378C49.0626 44.9553 49.1148 45.7083 49.0977 46.3346C49.0834 46.8762 49.0083 47.6537 48.7266 48.6054C48.8586 48.5691 50.2145 48.1724 50.6347 46.9017C50.9319 46.0038 50.5852 45.2024 50.4595 44.9116L50.46 44.9105Z" fill="white" stroke="#1E1E1E" stroke-width="1.20713" stroke-linecap="round" stroke-linejoin="round"/>
<path d="M48.7105 44.1714C48.5225 43.8385 48.2003 43.2682 47.7268 43.3006C47.6299 43.3076 47.549 43.3379 47.4973 43.3619C47.3754 43.3981 47.2411 43.4577 47.2081 43.5584C47.181 43.6404 47.2417 43.7128 47.2475 43.7416C47.2976 44.0015 47.337 44.3354 47.4472 45.3707C47.4872 45.7461 47.5122 45.9863 47.5213 46.3282C47.5282 46.5891 47.5186 46.8016 47.5117 46.9183C47.5101 46.9486 47.5085 46.9667 47.508 46.9784C47.4968 47.1462 47.4984 47.421 47.5522 47.8934C47.6933 47.855 47.8946 47.7842 48.1071 47.6463C48.5592 47.3523 48.7605 46.9497 48.8553 46.7548C49.1322 46.1844 49.1067 45.6646 49.0923 45.4202C49.055 44.7907 48.8234 44.37 48.7115 44.1714H48.7105Z" fill="white" stroke="#1E1E1E" stroke-width="1.20713" stroke-linecap="round" stroke-linejoin="round"/>
<path d="M47.422 45.3083C47.4475 45.2039 47.5221 44.9648 47.7378 44.772C47.7985 44.7177 48.1723 44.3753 48.6042 44.5175C48.9514 44.6314 49.0851 44.976 49.1053 45.0303C49.1298 45.0005 49.4776 44.5915 49.9628 44.6591C50.2317 44.6964 50.4096 44.862 50.4602 44.9105C50.6689 45.1102 50.7254 45.3456 50.7419 45.4318C50.9192 45.1517 51.2521 45.0415 51.5125 45.1491C51.8001 45.2683 51.8629 45.5969 51.8672 45.6198C51.8672 45.2747 51.8038 45.0085 51.75 44.837C51.3964 43.7122 50.3505 43.1531 49.9255 42.9912C49.9111 42.9858 49.8999 42.9816 49.8925 42.9789C49.2598 42.7451 48.6703 42.8026 48.6703 42.8026C48.6644 42.8032 48.6442 42.8053 48.6234 42.808C48.2314 42.8548 47.1674 43.1216 46.9517 43.8965C46.7584 44.5915 47.3698 45.2529 47.4225 45.3083H47.422Z" fill="#FCB300" stroke="#1E1E1E" stroke-width="1.20713" stroke-linecap="round" stroke-linejoin="round"/>
<path d="M47.4805 37.2853C47.874 37.2469 48.2873 37.2182 48.7186 37.2017C48.9764 37.1921 48.9391 37.1873 49.1841 37.1868" fill="#1E1E1E"/>
<path d="M47.4805 37.2853C47.874 37.2469 48.2873 37.2182 48.7186 37.2017C48.9764 37.1921 48.9391 37.1873 49.1841 37.1868" stroke="white" stroke-width="0.643802" stroke-linecap="round" stroke-linejoin="round"/>
<path d="M119.552 172.166C119.903 172.432 124.021 178.869 124.34 179.614C127.989 188.061 123.255 199.168 120.074 207.264C117.478 213.861 106.488 231.692 106.711 236.511C106.998 242.948 116.403 259.47 118.201 268.737C120.797 282.153 119.946 295.994 115.329 308.889C114.137 312.208 107.424 323.007 107.871 324.773C108.094 325.666 109.307 326.369 110.35 326.294C114.371 325.975 119.765 313.442 120.755 309.548C123.638 307.676 179.503 321.858 187.887 323.571C188.961 323.794 190.132 325.22 190.834 325.358C191.004 325.39 192.174 324.475 193.26 324.656C211.016 327.688 217.623 328.433 222.751 309.399C231.369 277.418 237.965 241.065 245.093 208.328C245.412 206.871 245.848 205.466 246.157 204.073C248.859 191.678 252.062 178.954 254.668 166.836C258.009 151.314 265.222 124.471 266.35 109.907C267.116 100.023 264.892 92.9479 254.902 89.4796L154.108 69.9463C146.427 70.8081 141.82 74.4892 139.266 81.7663L119.552 172.166Z" fill="#0F0F0F"/>
<path d="M119.552 172.166C119.903 172.432 124.021 178.869 124.34 179.614C127.989 188.061 123.255 199.168 120.074 207.264C117.478 213.861 106.488 231.692 106.711 236.511C106.998 242.948 116.403 259.47 118.201 268.737C120.797 282.153 119.946 295.994 115.329 308.889C114.137 312.208 107.424 323.007 107.871 324.773C108.094 325.666 109.307 326.369 110.35 326.294C114.371 325.975 119.765 313.442 120.755 309.548C123.638 307.676 179.503 321.858 187.887 323.571C188.961 323.794 190.132 325.22 190.834 325.358C191.004 325.39 192.174 324.475 193.26 324.656C211.016 327.688 217.623 328.433 222.751 309.399C231.369 277.418 237.965 241.065 245.093 208.328C245.412 206.871 245.848 205.466 246.157 204.073C248.859 191.678 252.062 178.954 254.668 166.836C258.009 151.314 265.222 124.471 266.35 109.907C267.116 100.023 264.892 92.9479 254.902 89.4796L154.108 67.9463C146.427 68.8081 141.82 74.4892 139.266 81.7663L119.552 172.166Z" fill="#1B1931"/>
<path d="M149.941 87.8251C150.909 83.514 155.188 80.8037 159.499 81.7714L248.436 101.735C252.706 102.693 255.413 106.905 254.512 111.188L226.221 245.654L119.776 222.21L149.941 87.8251Z" fill="url(#paint0_linear_199_7107)" fill-opacity="0.5"/>
<path d="M245.095 208.339C237.967 241.075 231.37 277.429 222.753 309.41C233.754 308.367 250.531 303.303 247.84 289.153C246.51 282.132 243.339 282.738 239.371 279.695C236.286 277.333 243.371 276.376 245.499 275.227C254.234 270.514 260.426 264.237 256 253.289C254.319 249.129 249.01 247.406 246.169 244.523C270.235 238.118 269.224 213.339 245.105 208.339H245.095Z" fill="#282537"/>
<path d="M254.666 166.847C252.059 178.965 248.857 191.689 246.155 204.083C254.709 201.179 272.912 193.997 274.636 184.146C276.742 172.113 265.209 165.932 254.666 166.847Z" fill="#282537"/>
<g filter="url(#filter0_d_199_7107)">
<rect x="116.752" y="249.611" width="100" height="33" rx="16.5" transform="rotate(13.8191 116.752 249.611)" fill="#FCB300" shape-rendering="crispEdges"/>
<rect x="117.158" y="250.282" width="98.8922" height="31.8922" rx="15.9461" transform="rotate(13.8191 117.158 250.282)" stroke="black" stroke-width="1.10783" shape-rendering="crispEdges"/>
<path d="M149.115 278.168L148.261 270.441L150.371 270.96L150.884 277.157L149.949 276.927L153.308 271.682L155.388 272.194L151.007 278.633L149.115 278.168ZM157.563 280.394C157.005 280.257 156.514 280.037 156.088 279.735C155.669 279.435 155.325 279.076 155.055 278.658C154.791 278.241 154.619 277.783 154.537 277.285C154.456 276.786 154.48 276.275 154.609 275.75C154.739 275.219 154.952 274.754 155.247 274.355C155.549 273.958 155.913 273.636 156.34 273.389C156.767 273.142 157.235 272.986 157.743 272.921C158.26 272.851 158.797 272.885 159.355 273.022C159.912 273.159 160.4 273.378 160.819 273.678C161.246 273.973 161.592 274.329 161.855 274.746C162.119 275.162 162.288 275.619 162.363 276.116C162.446 276.608 162.422 277.12 162.291 277.651C162.162 278.175 161.946 278.639 161.643 279.043C161.348 279.442 160.986 279.768 160.557 280.022C160.131 280.269 159.662 280.428 159.152 280.5C158.643 280.565 158.113 280.529 157.563 280.394ZM157.974 278.637C158.345 278.728 158.687 278.728 158.998 278.635C159.309 278.543 159.574 278.369 159.792 278.113C160.01 277.857 160.167 277.533 160.263 277.141C160.335 276.849 160.356 276.576 160.327 276.323C160.306 276.064 160.236 275.833 160.118 275.627C160.001 275.416 159.841 275.239 159.636 275.097C159.44 274.95 159.203 274.843 158.924 274.774C158.552 274.683 158.211 274.683 157.899 274.776C157.59 274.861 157.326 275.032 157.108 275.288C156.892 275.538 156.736 275.858 156.639 276.25C156.566 276.548 156.54 276.827 156.56 277.086C156.588 277.346 156.66 277.582 156.777 277.793C156.895 277.998 157.053 278.174 157.249 278.321C157.453 278.463 157.695 278.568 157.974 278.637ZM163.65 281.743L165.393 274.655L167.384 275.145L165.641 282.233L163.65 281.743ZM162.857 275.826L163.273 274.134L169.515 275.669L169.099 277.361L162.857 275.826ZM168.52 282.941L170.263 275.853L172.254 276.343L170.511 283.431L168.52 282.941ZM170.133 283.338L170.539 281.685L174.342 282.621L173.935 284.273L170.133 283.338ZM170.823 280.531L171.22 278.918L174.654 279.763L174.258 281.375L170.823 280.531ZM171.47 277.902L171.876 276.25L175.619 277.171L175.213 278.823L171.47 277.902Z" fill="black"/>
</g>
<path d="M35.5039 343.455C35.8976 365.243 45.5471 383.904 65.2719 395.075C83.2945 405.278 94.4336 403.81 114.233 404.097L131.511 373.51C158.023 366.297 173.663 344.933 190.834 325.368C190.132 325.23 188.962 323.804 187.887 323.581C179.514 321.868 123.638 307.675 120.755 309.559C119.755 313.452 114.371 325.985 110.35 326.304C109.307 326.39 108.094 325.677 107.871 324.783C107.424 323.017 114.137 312.218 115.329 308.899C119.946 295.994 120.797 282.152 118.201 268.747C116.403 259.481 106.998 242.948 106.711 236.522C106.488 231.691 117.488 213.871 120.074 207.275C123.255 199.178 127.313 188.485 124.929 179.576C123.961 176.615 123.218 174.179 119.552 172.177C115.457 169.939 111.278 170.486 107.541 171.347C100.657 172.932 93.5399 191.582 89.5609 198.04C79.7517 213.977 66.3571 228.149 61.3461 246.426C55.2712 268.556 55.1436 294.292 54.3988 317.144L35.5039 343.465V343.455Z" fill="#282537"/>
<path opacity="0.5" fill-rule="evenodd" clip-rule="evenodd" d="M156.963 225.147L157.77 221.936C158.105 220.605 157.297 219.256 155.967 218.922L152.279 224.539L149.791 234.44L157.776 236.447C158.575 236.657 159.406 236.247 159.725 235.486L162.649 228.539C162.837 228.091 162.818 227.583 162.598 227.15C162.378 226.717 161.98 226.402 161.507 226.289L156.963 225.147Z" fill="#6EEDD8" stroke="#6EEDD8" stroke-width="1.16421"/>
<path opacity="0.5" fill-rule="evenodd" clip-rule="evenodd" d="M146.58 233.633L146.312 233.566C145.425 233.343 144.887 232.443 145.11 231.556L146.522 225.937C146.745 225.05 147.645 224.512 148.531 224.735L148.799 224.802L146.58 233.633Z" fill="#6EEDD8" stroke="#6EEDD8" stroke-width="1.16421"/>
<path opacity="0.5" fill-rule="evenodd" clip-rule="evenodd" d="M188.507 238.993L187.778 242.223C187.477 243.561 186.148 244.401 184.81 244.099L184.052 237.423L186.298 227.464L194.33 229.275C195.137 229.447 195.694 230.188 195.636 231.012L195.111 238.531C195.077 239.015 194.831 239.46 194.439 239.747C194.048 240.035 193.55 240.136 193.077 240.024L188.507 238.993Z" fill="#FF9EEE" stroke="#FF9EEE" stroke-width="1.16421"/>
<path opacity="0.5" fill-rule="evenodd" clip-rule="evenodd" d="M183.067 226.735L182.798 226.675C181.906 226.474 181.02 227.034 180.818 227.926L179.544 233.578C179.343 234.47 179.903 235.356 180.795 235.557L181.064 235.618L183.067 226.735Z" fill="#FF9EEE" stroke="#FF9EEE" stroke-width="1.16421"/>
<circle cx="188.3" cy="168.197" r="42.3907" transform="rotate(12.0153 188.3 168.197)" fill="#FCB300"/>
<mask id="mask1_199_7107" style="mask-type:luminance" maskUnits="userSpaceOnUse" x="145" y="126" width="86" height="86">
<path d="M179.33 210.334C202.229 215.207 224.743 200.595 229.617 177.696C234.491 154.797 219.878 132.283 196.98 127.41C174.081 122.536 151.567 137.148 146.693 160.047C141.819 182.946 156.432 205.46 179.33 210.334Z" fill="white"/>
</mask>
<g mask="url(#mask1_199_7107)">
<path d="M174.155 210.295C170.638 209.604 166.799 208.419 163.378 207.315C159.766 206.15 154.904 204.565 151.728 202.557C151.475 202.397 150.747 201.954 150.581 201.776C150.529 201.72 150.489 201.68 150.508 201.596C152.362 196.815 153.955 191.845 156.391 187.324C157.732 184.837 158.454 183.496 161.375 182.987C165.55 182.26 169.877 181.945 174.058 181.197L176.416 179.866C176.572 179.871 176.49 179.952 176.478 180.05C175.609 186.855 175.619 193.789 176.356 200.587L176.732 202.687C177.85 198.645 179.493 194.786 181.282 191.009L181.289 190.774L179.951 187.927L182.766 185.92C180.731 183.589 178.065 181.524 177.998 178.161C177.992 177.892 178.084 177.553 178.072 177.322C178.06 177.091 177.689 176.3 177.606 175.986C177.416 175.256 177.312 174.406 177.284 173.652C177.276 173.431 177.354 172.305 177.311 172.25C177.293 172.227 176.893 172.153 176.749 172.077C175.716 171.53 175.504 168.875 175.538 167.834C175.582 166.424 175.748 164.621 177.519 164.542C177.473 164.092 177.467 163.631 177.486 163.179C177.632 159.757 178.588 155.488 181.761 153.622C182.228 153.347 182.792 153.227 183.221 152.998C184.635 152.246 185.067 151.663 186.84 151.347C193.024 150.243 198.818 154.02 199.667 160.311C200.068 163.273 199.258 166.225 198.163 168.96C199.929 170.065 198.641 172.894 197.822 174.276C197.288 175.176 196.335 176.439 195.143 176.114C194.653 177.338 194.048 178.514 193.211 179.536C193.048 179.736 192.466 180.236 192.395 180.369C192.258 180.625 192.182 181.12 192.059 181.418C190.935 184.142 187.194 185.147 184.753 186.275L186.597 189.194L184.182 191.556C184.207 193.68 184.22 195.805 184.109 197.929C184.004 199.931 183.843 201.952 183.53 203.928C183.764 203.755 183.951 203.387 184.111 203.128C187.988 196.877 190.375 190.437 192.747 183.52C192.771 183.449 192.865 183.106 192.98 183.185C193.074 183.251 193.454 183.933 193.574 184.1C193.921 184.588 194.286 185.073 194.659 185.543C198.232 188.059 202.421 190.05 205.96 192.562C208.129 194.101 208.143 195.913 208.321 198.375C208.694 203.502 208.171 208.705 208.015 213.837C207.993 214.046 207.825 214.035 207.664 214.079C205.775 214.589 202.914 214.412 200.931 214.327C194.809 214.063 188.691 213.213 182.678 212.107C182.606 211.994 181.817 211.826 181.774 211.846C181.761 211.852 181.76 211.942 181.746 211.977C181.658 211.96 181.571 211.938 181.484 211.921C181.565 211.735 181.36 211.68 181.353 211.893C179.338 211.501 177.331 211.031 175.321 210.61C175.242 210.345 174.998 210.474 174.941 210.46C174.876 210.444 174.81 210.43 174.744 210.418C174.723 210.413 174.578 210.383 174.547 210.376C174.459 210.359 174.373 210.337 174.285 210.32C174.267 210.316 174.19 210.3 174.154 210.293L174.155 210.295Z" fill="#1E1E1E"/>
</g>
<g clip-path="url(#clip0_199_7107)">
<path fill-rule="evenodd" clip-rule="evenodd" d="M226.156 169.963C225.822 171.556 225.115 173.048 224.094 174.317C221.619 177.422 217.601 178.862 213.717 178.036C212.123 177.702 210.631 176.995 209.363 175.975L203.46 175.853L205.753 170.413C205.338 168.839 205.3 167.189 205.643 165.597C206.471 161.713 209.422 158.63 213.266 157.633C214.841 157.218 216.491 157.18 218.083 157.523L218.686 157.652C223.833 159.047 227.106 164.091 226.285 169.36L226.156 169.963Z" fill="white" stroke="white" stroke-width="1.58965" stroke-linecap="round" stroke-linejoin="round"/>
<line x1="212.648" y1="163.473" x2="220.625" y2="165.171" stroke="#FCB300" stroke-width="2.33029" stroke-linecap="round"/>
<path d="M211.512 167.407L217.21 168.619" stroke="#FCB300" stroke-width="2.33029" stroke-linecap="round"/>
<path d="M210.707 171.183L212.986 171.668" stroke="#FCB300" stroke-width="2.33029" stroke-linecap="round"/>
</g>
<g clip-path="url(#clip1_199_7107)">
<path fill-rule="evenodd" clip-rule="evenodd" d="M161.351 147.668C161.147 148.614 161.17 149.596 161.417 150.532C162.01 152.818 163.843 154.574 166.153 155.066C167.1 155.27 168.081 155.248 169.017 155.001L172.253 156.364L172.325 152.854C172.932 152.099 173.352 151.212 173.551 150.264C174.042 147.954 173.186 145.565 171.339 144.092C170.585 143.485 169.697 143.065 168.75 142.866L168.391 142.79C165.257 142.301 162.258 144.248 161.428 147.309L161.351 147.668Z" fill="white" stroke="white" stroke-width="1.23959" stroke-linecap="round" stroke-linejoin="round"/>
</g>
<path d="M214.635 109.198C211.936 107.691 208.632 109.563 207.832 112.381C206.683 116.429 211.783 117.642 214.37 115.598C214.468 115.467 214.11 114.49 214.166 114.239C214.047 114.095 213.377 114.488 213.182 114.55C211.965 114.938 210.123 114.723 210.491 113.055L215.375 113.335C216.049 111.911 216.205 110.075 214.634 109.197L214.635 109.198ZM212.753 111.855C212.557 111.867 211.08 111.782 211.016 111.723C210.888 111.602 211.324 110.984 211.431 110.861C211.695 110.558 212.109 110.305 212.523 110.313C213.189 110.324 213.597 110.649 213.448 111.344C213.358 111.762 213.142 111.832 212.753 111.855Z" fill="#FCB300"/>
<path d="M208.057 109.999C208.164 109.955 208.63 108.547 208.666 108.309L207.015 107.997C206.986 107.991 206.923 107.87 206.948 107.817L207.617 105.739L204.856 106.206C204.549 106.318 204.425 107.35 204.229 107.438C203.963 107.497 202.963 107.128 202.823 107.268C202.732 107.359 202.39 108.672 202.272 108.912L203.45 109.135C203.52 109.149 203.526 109.313 203.511 109.388C203.207 110.925 201.26 113.452 202.812 114.791C203.523 115.405 204.997 115.66 205.897 115.394C206.413 115.24 206.459 114.059 206.689 113.587C206.273 113.592 205.285 113.788 205.138 113.206C204.979 112.579 206.075 110.385 206.32 109.688L208.057 109.999L208.057 109.999Z" fill="#FCB300"/>
<path d="M200.852 107.065C199.938 106.158 198.129 105.844 196.886 105.959C196.479 105.996 195.024 106.276 194.937 106.719C194.906 106.878 195.32 107.936 195.382 107.962C195.597 108.05 196.129 107.749 196.369 107.696C197.116 107.531 198.761 107.515 198.76 108.578C198.759 109.467 198.478 109.115 197.967 109.002C196.491 108.674 194.434 108.538 193.339 109.793C192.113 111.199 192.667 113.033 194.461 113.502C195.391 113.745 196.095 113.58 196.928 113.164C197.029 113.114 197.097 112.984 197.121 112.976C197.472 112.858 197.325 113.146 197.339 113.299C197.41 114.036 198.443 114.259 199.049 114.297C199.18 114.305 199.851 114.232 199.932 114.173C199.995 114.127 200.413 113.289 200.418 113.202C200.429 112.988 200.176 113.027 200.118 112.815C200.076 112.66 200.125 112.471 200.163 112.317C200.555 110.731 202.316 108.519 200.852 107.066L200.852 107.065ZM197.721 111.402C197.276 112.192 195.344 112.25 195.493 111.153C195.655 109.966 197.234 110.064 198.078 110.421C198.112 110.468 197.781 111.296 197.721 111.402L197.721 111.402Z" fill="#FCB300"/>
<path d="M218.899 116.081C218.899 115.902 218.525 115.777 218.48 115.611C218.427 115.413 218.563 115.107 218.582 114.898L221.609 106.645C220.704 106.592 219.794 106.384 218.905 106.335L218.802 106.441L215.572 115.3C215.359 116.067 215.557 116.822 216.341 117.127C216.665 117.252 217.769 117.359 218.15 117.363C218.256 117.364 218.263 117.358 218.326 117.277C218.38 117.209 218.9 116.148 218.9 116.081L218.899 116.081Z" fill="#FCB300"/>
<path d="M187.693 107.806L188.886 111.964L191.85 112.73L191.874 112.391L190.53 107.912C191.66 107.715 192.742 107.244 193.389 106.251C195.113 103.608 193.245 101.759 190.666 101.13C189.173 100.766 187.562 100.601 186.057 100.269C186.007 100.537 185.381 101.768 185.394 101.905C185.422 102.215 186.133 101.844 185.969 102.5C185.113 104.965 183.909 107.411 183.064 109.865C183.011 110.019 182.753 110.6 182.922 110.69L185.65 111.207L187.023 107.6C187.103 107.52 187.627 107.653 187.694 107.806L187.693 107.806ZM188.814 103.024C190.039 103.095 191.573 103.648 190.756 105.142C190.499 105.61 189.714 106.046 189.193 105.947L187.812 105.685L188.814 103.024L188.814 103.024Z" fill="#FCB300"/>
</g>
<defs>
<filter id="filter0_d_199_7107" x="108.869" y="249.611" width="104.988" height="63.495" filterUnits="userSpaceOnUse" color-interpolation-filters="sRGB">
<feFlood flood-opacity="0" result="BackgroundImageFix"/>
<feColorMatrix in="SourceAlpha" type="matrix" values="0 0 0 0 0 0 0 0 0 0 0 0 0 0 0 0 0 0 127 0" result="hardAlpha"/>
<feOffset dy="7.56432"/>
<feComposite in2="hardAlpha" operator="out"/>
<feColorMatrix type="matrix" values="0 0 0 0 1 0 0 0 0 0.416667 0 0 0 0 0 0 0 0 0.5 0"/>
<feBlend mode="normal" in2="BackgroundImageFix" result="effect1_dropShadow_199_7107"/>
<feBlend mode="normal" in="SourceGraphic" in2="effect1_dropShadow_199_7107" result="shape"/>
</filter>
<linearGradient id="paint0_linear_199_7107" x1="203.915" y1="91.7413" x2="171.999" y2="233.932" gradientUnits="userSpaceOnUse">
<stop stop-color="#FCB300"/>
<stop offset="1" stop-color="#FCB300" stop-opacity="0"/>
</linearGradient>
<clipPath id="clip0_199_7107">
<rect width="27.9635" height="27.9635" fill="white" transform="translate(205.135 151.194) rotate(12.0153)"/>
</clipPath>
<clipPath id="clip1_199_7107">
<rect width="16.6312" height="16.6312" fill="white" transform="matrix(-0.978092 -0.208173 -0.208173 0.978092 177.314 142.564)"/>
</clipPath>
</defs>
</svg>
