<svg width="1800" height="1260" viewBox="0 0 1800 1260" fill="none" xmlns="http://www.w3.org/2000/svg">
  <defs>
    <filter id="cardShadow" x="-20%" y="-20%" width="140%" height="160%">
      <feDropShadow dx="0" dy="18" stdDeviation="22" flood-color="#3A2E22" flood-opacity="0.12"/>
    </filter>

    <linearGradient id="heroA" x1="0" y1="0" x2="1" y2="1">
      <stop offset="0%" stop-color="#5A695A"/>
      <stop offset="55%" stop-color="#756C62"/>
      <stop offset="100%" stop-color="#8F7D69"/>
    </linearGradient>
    <linearGradient id="heroB" x1="0" y1="0" x2="1" y2="1">
      <stop offset="0%" stop-color="#6B7358"/>
      <stop offset="55%" stop-color="#8B6D5C"/>
      <stop offset="100%" stop-color="#B17859"/>
    </linearGradient>
    <linearGradient id="heroC" x1="0" y1="0" x2="1" y2="1">
      <stop offset="0%" stop-color="#697168"/>
      <stop offset="55%" stop-color="#7B5D63"/>
      <stop offset="100%" stop-color="#A18A6E"/>
    </linearGradient>
    <linearGradient id="heroD" x1="0" y1="0" x2="1" y2="1">
      <stop offset="0%" stop-color="#5F6666"/>
      <stop offset="55%" stop-color="#6F767B"/>
      <stop offset="100%" stop-color="#8B7E69"/>
    </linearGradient>
  </defs>

  <rect width="1800" height="1260" fill="#EFE7DC"/>

  <text x="96" y="96" fill="#231D18" font-family="Inter, Arial, sans-serif" font-size="34" font-weight="700">Console Color Directions</text>
  <text x="96" y="132" fill="#706253" font-family="Inter, Arial, sans-serif" font-size="18" font-weight="500">Same layout, calmer palettes. Pick a direction first, then I will apply it to the whole console.</text>

  <!-- A -->
  <g transform="translate(84 176)" filter="url(#cardShadow)">
    <rect x="0" y="0" width="790" height="470" rx="28" fill="#FBF7F1"/>
    <rect x="0.5" y="0.5" width="789" height="469" rx="27.5" stroke="#DCCFC2"/>
    <text x="34" y="48" fill="#241D18" font-family="Inter, Arial, sans-serif" font-size="28" font-weight="700">A. Moss / Oat</text>
    <rect x="244" y="24" width="126" height="30" rx="15" fill="#E5EAE3"/>
    <text x="307" y="44" text-anchor="middle" fill="#516151" font-family="Inter, Arial, sans-serif" font-size="14" font-weight="700">Recommended</text>
    <text x="34" y="80" fill="#746658" font-family="Inter, Arial, sans-serif" font-size="15" font-weight="500">Warm SaaS, soft premium, least risky.</text>

    <g transform="translate(34 112)">
      <rect x="0" y="0" width="350" height="190" rx="22" fill="#F4F0E8"/>
      <rect x="0" y="0" width="70" height="190" rx="22" fill="#171712"/>
      <rect x="86" y="18" width="244" height="18" rx="9" fill="#ECE4D8"/>
      <rect x="86" y="54" width="228" height="74" rx="18" fill="url(#heroA)"/>
      <rect x="86" y="144" width="74" height="28" rx="14" fill="#5A695A"/>
      <rect x="172" y="144" width="74" height="28" rx="14" fill="#FFFCF7"/>
      <rect x="258" y="144" width="72" height="28" rx="14" fill="#E7DED0"/>

      <rect x="384" y="0" width="350" height="190" rx="22" fill="#141310"/>
      <rect x="384" y="0" width="70" height="190" rx="22" fill="#0D0D0A"/>
      <rect x="470" y="18" width="244" height="18" rx="9" fill="#26231D"/>
      <rect x="470" y="54" width="228" height="74" rx="18" fill="url(#heroA)"/>
      <rect x="470" y="144" width="74" height="28" rx="14" fill="#8C988B"/>
      <rect x="556" y="144" width="74" height="28" rx="14" fill="#1E1C18"/>
      <rect x="642" y="144" width="72" height="28" rx="14" fill="#2A261F"/>
    </g>

    <g transform="translate(34 336)">
      <rect x="0" y="0" width="136" height="78" rx="18" fill="#171712"/>
      <text x="18" y="26" fill="#B7AB9A" font-family="Inter, Arial, sans-serif" font-size="12" font-weight="700">SIDEBAR</text>
      <text x="18" y="54" fill="#F2ECE4" font-family="Inter, Arial, sans-serif" font-size="16" font-weight="700">#171712</text>

      <rect x="152" y="0" width="136" height="78" rx="18" fill="#F4F0E8"/>
      <text x="170" y="26" fill="#7A6D60" font-family="Inter, Arial, sans-serif" font-size="12" font-weight="700">CANVAS</text>
      <text x="170" y="54" fill="#2A241E" font-family="Inter, Arial, sans-serif" font-size="16" font-weight="700">#F4F0E8</text>

      <rect x="304" y="0" width="136" height="78" rx="18" fill="#5A695A"/>
      <text x="322" y="26" fill="#DCE4DA" font-family="Inter, Arial, sans-serif" font-size="12" font-weight="700">BRAND</text>
      <text x="322" y="54" fill="#FFFFFF" font-family="Inter, Arial, sans-serif" font-size="16" font-weight="700">#5A695A</text>

      <rect x="456" y="0" width="136" height="78" rx="18" fill="#8F7D69"/>
      <text x="474" y="26" fill="#EFE7DF" font-family="Inter, Arial, sans-serif" font-size="12" font-weight="700">ACCENT</text>
      <text x="474" y="54" fill="#FFFFFF" font-family="Inter, Arial, sans-serif" font-size="16" font-weight="700">#8F7D69</text>

      <rect x="608" y="0" width="136" height="78" rx="18" fill="#776C74"/>
      <text x="626" y="26" fill="#E8E0E5" font-family="Inter, Arial, sans-serif" font-size="12" font-weight="700">ALT</text>
      <text x="626" y="54" fill="#FFFFFF" font-family="Inter, Arial, sans-serif" font-size="16" font-weight="700">#776C74</text>
    </g>
  </g>

  <!-- B -->
  <g transform="translate(926 176)" filter="url(#cardShadow)">
    <rect x="0" y="0" width="790" height="470" rx="28" fill="#FBF7F1"/>
    <rect x="0.5" y="0.5" width="789" height="469" rx="27.5" stroke="#DCCFC2"/>
    <text x="34" y="48" fill="#241D18" font-family="Inter, Arial, sans-serif" font-size="28" font-weight="700">B. Olive / Clay</text>
    <text x="34" y="80" fill="#746658" font-family="Inter, Arial, sans-serif" font-size="15" font-weight="500">More character, warmer, slightly more editorial.</text>

    <g transform="translate(34 112)">
      <rect x="0" y="0" width="350" height="190" rx="22" fill="#F6F0E8"/>
      <rect x="0" y="0" width="70" height="190" rx="22" fill="#1A1511"/>
      <rect x="86" y="18" width="244" height="18" rx="9" fill="#ECE2D8"/>
      <rect x="86" y="54" width="228" height="74" rx="18" fill="url(#heroB)"/>
      <rect x="86" y="144" width="74" height="28" rx="14" fill="#6B7358"/>
      <rect x="172" y="144" width="74" height="28" rx="14" fill="#FFFCF8"/>
      <rect x="258" y="144" width="72" height="28" rx="14" fill="#E8DCCC"/>

      <rect x="384" y="0" width="350" height="190" rx="22" fill="#15110E"/>
      <rect x="384" y="0" width="70" height="190" rx="22" fill="#0E0B08"/>
      <rect x="470" y="18" width="244" height="18" rx="9" fill="#29211C"/>
      <rect x="470" y="54" width="228" height="74" rx="18" fill="url(#heroB)"/>
      <rect x="470" y="144" width="74" height="28" rx="14" fill="#97A088"/>
      <rect x="556" y="144" width="74" height="28" rx="14" fill="#211B17"/>
      <rect x="642" y="144" width="72" height="28" rx="14" fill="#302720"/>
    </g>

    <g transform="translate(34 336)">
      <rect x="0" y="0" width="136" height="78" rx="18" fill="#1A1511"/>
      <text x="18" y="26" fill="#BFAF9E" font-family="Inter, Arial, sans-serif" font-size="12" font-weight="700">SIDEBAR</text>
      <text x="18" y="54" fill="#F2ECE5" font-family="Inter, Arial, sans-serif" font-size="16" font-weight="700">#1A1511</text>

      <rect x="152" y="0" width="136" height="78" rx="18" fill="#F6F0E8"/>
      <text x="170" y="26" fill="#7A6D60" font-family="Inter, Arial, sans-serif" font-size="12" font-weight="700">CANVAS</text>
      <text x="170" y="54" fill="#2A241E" font-family="Inter, Arial, sans-serif" font-size="16" font-weight="700">#F6F0E8</text>

      <rect x="304" y="0" width="136" height="78" rx="18" fill="#6B7358"/>
      <text x="322" y="26" fill="#DFE5D8" font-family="Inter, Arial, sans-serif" font-size="12" font-weight="700">BRAND</text>
      <text x="322" y="54" fill="#FFFFFF" font-family="Inter, Arial, sans-serif" font-size="16" font-weight="700">#6B7358</text>

      <rect x="456" y="0" width="136" height="78" rx="18" fill="#B17859"/>
      <text x="474" y="26" fill="#F1E5DC" font-family="Inter, Arial, sans-serif" font-size="12" font-weight="700">ACCENT</text>
      <text x="474" y="54" fill="#FFFFFF" font-family="Inter, Arial, sans-serif" font-size="16" font-weight="700">#B17859</text>

      <rect x="608" y="0" width="136" height="78" rx="18" fill="#8F685A"/>
      <text x="626" y="26" fill="#ECDDD8" font-family="Inter, Arial, sans-serif" font-size="12" font-weight="700">ALT</text>
      <text x="626" y="54" fill="#FFFFFF" font-family="Inter, Arial, sans-serif" font-size="16" font-weight="700">#8F685A</text>
    </g>
  </g>

  <!-- C -->
  <g transform="translate(84 706)" filter="url(#cardShadow)">
    <rect x="0" y="0" width="790" height="470" rx="28" fill="#FBF7F1"/>
    <rect x="0.5" y="0.5" width="789" height="469" rx="27.5" stroke="#DCCFC2"/>
    <text x="34" y="48" fill="#241D18" font-family="Inter, Arial, sans-serif" font-size="28" font-weight="700">C. Stone / Merlot</text>
    <text x="34" y="80" fill="#746658" font-family="Inter, Arial, sans-serif" font-size="15" font-weight="500">Most premium. Better if you want the console to feel less generic.</text>

    <g transform="translate(34 112)">
      <rect x="0" y="0" width="350" height="190" rx="22" fill="#F5F1EC"/>
      <rect x="0" y="0" width="70" height="190" rx="22" fill="#171417"/>
      <rect x="86" y="18" width="244" height="18" rx="9" fill="#ECE4DE"/>
      <rect x="86" y="54" width="228" height="74" rx="18" fill="url(#heroC)"/>
      <rect x="86" y="144" width="74" height="28" rx="14" fill="#697168"/>
      <rect x="172" y="144" width="74" height="28" rx="14" fill="#FFFBF8"/>
      <rect x="258" y="144" width="72" height="28" rx="14" fill="#E8DFD9"/>

      <rect x="384" y="0" width="350" height="190" rx="22" fill="#131012"/>
      <rect x="384" y="0" width="70" height="190" rx="22" fill="#0B090A"/>
      <rect x="470" y="18" width="244" height="18" rx="9" fill="#262125"/>
      <rect x="470" y="54" width="228" height="74" rx="18" fill="url(#heroC)"/>
      <rect x="470" y="144" width="74" height="28" rx="14" fill="#8C9589"/>
      <rect x="556" y="144" width="74" height="28" rx="14" fill="#1C191B"/>
      <rect x="642" y="144" width="72" height="28" rx="14" fill="#2A2528"/>
    </g>

    <g transform="translate(34 336)">
      <rect x="0" y="0" width="136" height="78" rx="18" fill="#171417"/>
      <text x="18" y="26" fill="#B7AFB4" font-family="Inter, Arial, sans-serif" font-size="12" font-weight="700">SIDEBAR</text>
      <text x="18" y="54" fill="#F1EBEE" font-family="Inter, Arial, sans-serif" font-size="16" font-weight="700">#171417</text>

      <rect x="152" y="0" width="136" height="78" rx="18" fill="#F5F1EC"/>
      <text x="170" y="26" fill="#7A6E68" font-family="Inter, Arial, sans-serif" font-size="12" font-weight="700">CANVAS</text>
      <text x="170" y="54" fill="#2A2420" font-family="Inter, Arial, sans-serif" font-size="16" font-weight="700">#F5F1EC</text>

      <rect x="304" y="0" width="136" height="78" rx="18" fill="#697168"/>
      <text x="322" y="26" fill="#E1E6E0" font-family="Inter, Arial, sans-serif" font-size="12" font-weight="700">BRAND</text>
      <text x="322" y="54" fill="#FFFFFF" font-family="Inter, Arial, sans-serif" font-size="16" font-weight="700">#697168</text>

      <rect x="456" y="0" width="136" height="78" rx="18" fill="#7B5D63"/>
      <text x="474" y="26" fill="#EADFE2" font-family="Inter, Arial, sans-serif" font-size="12" font-weight="700">ACCENT</text>
      <text x="474" y="54" fill="#FFFFFF" font-family="Inter, Arial, sans-serif" font-size="16" font-weight="700">#7B5D63</text>

      <rect x="608" y="0" width="136" height="78" rx="18" fill="#A18A6E"/>
      <text x="626" y="26" fill="#F1E8DD" font-family="Inter, Arial, sans-serif" font-size="12" font-weight="700">ALT</text>
      <text x="626" y="54" fill="#FFFFFF" font-family="Inter, Arial, sans-serif" font-size="16" font-weight="700">#A18A6E</text>
    </g>
  </g>

  <!-- D -->
  <g transform="translate(926 706)" filter="url(#cardShadow)">
    <rect x="0" y="0" width="790" height="470" rx="28" fill="#FBF7F1"/>
    <rect x="0.5" y="0.5" width="789" height="469" rx="27.5" stroke="#DCCFC2"/>
    <text x="34" y="48" fill="#241D18" font-family="Inter, Arial, sans-serif" font-size="28" font-weight="700">D. Slate / Brass</text>
    <text x="34" y="80" fill="#746658" font-family="Inter, Arial, sans-serif" font-size="15" font-weight="500">Cooler and cleaner, but still muted. Closest to classic SaaS.</text>

    <g transform="translate(34 112)">
      <rect x="0" y="0" width="350" height="190" rx="22" fill="#F3F2EE"/>
      <rect x="0" y="0" width="70" height="190" rx="22" fill="#17191A"/>
      <rect x="86" y="18" width="244" height="18" rx="9" fill="#E5E4DE"/>
      <rect x="86" y="54" width="228" height="74" rx="18" fill="url(#heroD)"/>
      <rect x="86" y="144" width="74" height="28" rx="14" fill="#5F6666"/>
      <rect x="172" y="144" width="74" height="28" rx="14" fill="#FCFBF8"/>
      <rect x="258" y="144" width="72" height="28" rx="14" fill="#E7E4DD"/>

      <rect x="384" y="0" width="350" height="190" rx="22" fill="#141516"/>
      <rect x="384" y="0" width="70" height="190" rx="22" fill="#0C0D0D"/>
      <rect x="470" y="18" width="244" height="18" rx="9" fill="#26292A"/>
      <rect x="470" y="54" width="228" height="74" rx="18" fill="url(#heroD)"/>
      <rect x="470" y="144" width="74" height="28" rx="14" fill="#8B9493"/>
      <rect x="556" y="144" width="74" height="28" rx="14" fill="#1C1E1F"/>
      <rect x="642" y="144" width="72" height="28" rx="14" fill="#282A2B"/>
    </g>

    <g transform="translate(34 336)">
      <rect x="0" y="0" width="136" height="78" rx="18" fill="#17191A"/>
      <text x="18" y="26" fill="#B6B9BA" font-family="Inter, Arial, sans-serif" font-size="12" font-weight="700">SIDEBAR</text>
      <text x="18" y="54" fill="#EFF1F2" font-family="Inter, Arial, sans-serif" font-size="16" font-weight="700">#17191A</text>

      <rect x="152" y="0" width="136" height="78" rx="18" fill="#F3F2EE"/>
      <text x="170" y="26" fill="#767674" font-family="Inter, Arial, sans-serif" font-size="12" font-weight="700">CANVAS</text>
      <text x="170" y="54" fill="#242627" font-family="Inter, Arial, sans-serif" font-size="16" font-weight="700">#F3F2EE</text>

      <rect x="304" y="0" width="136" height="78" rx="18" fill="#5F6666"/>
      <text x="322" y="26" fill="#DCE1E1" font-family="Inter, Arial, sans-serif" font-size="12" font-weight="700">BRAND</text>
      <text x="322" y="54" fill="#FFFFFF" font-family="Inter, Arial, sans-serif" font-size="16" font-weight="700">#5F6666</text>

      <rect x="456" y="0" width="136" height="78" rx="18" fill="#8B7E69"/>
      <text x="474" y="26" fill="#EEE7DE" font-family="Inter, Arial, sans-serif" font-size="12" font-weight="700">ACCENT</text>
      <text x="474" y="54" fill="#FFFFFF" font-family="Inter, Arial, sans-serif" font-size="16" font-weight="700">#8B7E69</text>

      <rect x="608" y="0" width="136" height="78" rx="18" fill="#6F767B"/>
      <text x="626" y="26" fill="#E2E6E8" font-family="Inter, Arial, sans-serif" font-size="12" font-weight="700">ALT</text>
      <text x="626" y="54" fill="#FFFFFF" font-family="Inter, Arial, sans-serif" font-size="16" font-weight="700">#6F767B</text>
    </g>
  </g>
</svg>
