<svg width="1440" height="1024" viewBox="0 0 1440 1024" fill="none" xmlns="http://www.w3.org/2000/svg">
  <defs>
    <linearGradient id="bgGradientDark" x1="220" y1="0" x2="1440" y2="1024" gradientUnits="userSpaceOnUse">
      <stop stop-color="#08111F"/>
      <stop offset="1" stop-color="#0F1A2E"/>
    </linearGradient>
    <linearGradient id="sidebarGradientDark" x1="0" y1="0" x2="260" y2="1024" gradientUnits="userSpaceOnUse">
      <stop stop-color="#020617"/>
      <stop offset="1" stop-color="#0B1120"/>
    </linearGradient>
    <linearGradient id="heroGradientDark" x1="320" y1="104" x2="1110" y2="320" gradientUnits="userSpaceOnUse">
      <stop stop-color="#115E59"/>
      <stop offset="0.48" stop-color="#155E75"/>
      <stop offset="1" stop-color="#1D4ED8"/>
    </linearGradient>
    <linearGradient id="brandGradientDark" x1="32" y1="32" x2="72" y2="72" gradientUnits="userSpaceOnUse">
      <stop stop-color="#67E8F9"/>
      <stop offset="1" stop-color="#34D399"/>
    </linearGradient>
    <linearGradient id="chartAreaDark" x1="320" y1="480" x2="840" y2="760" gradientUnits="userSpaceOnUse">
      <stop stop-color="#22D3EE" stop-opacity="0.34"/>
      <stop offset="1" stop-color="#22D3EE" stop-opacity="0"/>
    </linearGradient>
    <filter id="panelShadowDark" x="220" y="60" width="1180" height="920" filterUnits="userSpaceOnUse" color-interpolation-filters="sRGB">
      <feDropShadow dx="0" dy="24" stdDeviation="28" flood-color="#000000" flood-opacity="0.28"/>
    </filter>
    <filter id="cardShadowDark" x="-32" y="-32" width="340" height="220" filterUnits="userSpaceOnUse" color-interpolation-filters="sRGB">
      <feDropShadow dx="0" dy="18" stdDeviation="20" flood-color="#000000" flood-opacity="0.22"/>
    </filter>
  </defs>

  <rect width="1440" height="1024" rx="28" fill="#020817"/>
  <rect x="16" y="16" width="1408" height="992" rx="24" fill="url(#bgGradientDark)"/>
  <circle cx="1310" cy="94" r="180" fill="#0F766E" fill-opacity="0.18"/>
  <circle cx="1180" cy="860" r="240" fill="#0EA5E9" fill-opacity="0.14"/>
  <circle cx="420" cy="920" r="180" fill="#1D4ED8" fill-opacity="0.16"/>

  <g filter="url(#panelShadowDark)">
    <rect x="28" y="28" width="1384" height="968" rx="24" fill="#0B1424"/>
  </g>

  <rect x="28" y="28" width="260" height="968" rx="24" fill="url(#sidebarGradientDark)"/>
  <rect x="288" y="28" width="1124" height="968" rx="24" fill="#0F172A"/>

  <rect x="54" y="56" width="44" height="44" rx="14" fill="url(#brandGradientDark)"/>
  <path d="M68 68H84C88.4183 68 92 71.5817 92 76C92 80.4183 88.4183 84 84 84H68V68Z" fill="#04101D" fill-opacity="0.92"/>
  <path d="M78 74H94V82H78V74Z" fill="#E6FFFA"/>
  <text x="114" y="74" fill="#F8FAFC" font-size="22" font-weight="700" font-family="Space Grotesk, Inter, sans-serif">Biyard</text>
  <text x="114" y="98" fill="#7C8DA6" font-size="13" font-weight="500" font-family="Inter, sans-serif" letter-spacing="0.8">CONSOLE / PROJECT OPS</text>

  <rect x="54" y="126" width="208" height="86" rx="18" fill="#0B1220" stroke="#1E293B"/>
  <text x="72" y="150" fill="#67E8F9" font-size="12" font-weight="700" font-family="Inter, sans-serif" letter-spacing="1.2">ACTIVE WORKSPACE</text>
  <text x="72" y="178" fill="#F8FAFC" font-size="20" font-weight="700" font-family="Space Grotesk, Inter, sans-serif">Biyard Labs</text>
  <text x="72" y="198" fill="#7C8DA6" font-size="13" font-weight="500" font-family="Inter, sans-serif">12 production projects</text>
  <rect x="197" y="146" width="47" height="24" rx="12" fill="#11362F"/>
  <text x="208" y="162" fill="#86EFAC" font-size="12" font-weight="700" font-family="Inter, sans-serif">PRO</text>

  <text x="54" y="252" fill="#506178" font-size="11" font-weight="700" font-family="Inter, sans-serif" letter-spacing="1.8">NAVIGATION</text>
  <rect x="46" y="270" width="224" height="48" rx="16" fill="#082F49"/>
  <rect x="54" y="278" width="4" height="32" rx="2" fill="#67E8F9"/>
  <rect x="72" y="285" width="18" height="18" rx="5" stroke="#67E8F9" stroke-width="1.8"/>
  <path d="M77 294H85" stroke="#67E8F9" stroke-width="1.8" stroke-linecap="round"/>
  <path d="M81 290V298" stroke="#67E8F9" stroke-width="1.8" stroke-linecap="round"/>
  <text x="106" y="298" fill="#F8FAFC" font-size="15" font-weight="700" font-family="Inter, sans-serif">Overview</text>

  <g fill="#94A3B8" font-family="Inter, sans-serif" font-size="15" font-weight="600">
    <rect x="72" y="338" width="18" height="18" rx="5" stroke="#334155" stroke-width="1.7" fill="none"/>
    <path d="M77 347H85" stroke="#94A3B8" stroke-width="1.7" stroke-linecap="round"/>
    <text x="106" y="351">Projects</text>

    <rect x="72" y="389" width="18" height="18" rx="5" stroke="#334155" stroke-width="1.7" fill="none"/>
    <circle cx="81" cy="398" r="3.2" stroke="#94A3B8" stroke-width="1.6" fill="none"/>
    <text x="106" y="402">API Credentials</text>

    <rect x="72" y="440" width="18" height="18" rx="5" stroke="#334155" stroke-width="1.7" fill="none"/>
    <path d="M77 449H85" stroke="#94A3B8" stroke-width="1.7" stroke-linecap="round"/>
    <path d="M81 445V453" stroke="#94A3B8" stroke-width="1.7" stroke-linecap="round"/>
    <text x="106" y="453">Treasury</text>

    <rect x="72" y="491" width="18" height="18" rx="5" stroke="#334155" stroke-width="1.7" fill="none"/>
    <path d="M76 500H86" stroke="#94A3B8" stroke-width="1.7" stroke-linecap="round"/>
    <text x="106" y="504">Settings</text>
  </g>

  <rect x="54" y="830" width="208" height="120" rx="20" fill="#0B1220" stroke="#1E293B"/>
  <text x="72" y="856" fill="#94A3B8" font-size="12" font-weight="700" font-family="Inter, sans-serif" letter-spacing="1.2">SYSTEM HEALTH</text>
  <text x="72" y="888" fill="#F8FAFC" font-size="30" font-weight="700" font-family="Space Grotesk, Inter, sans-serif">99.982%</text>
  <text x="72" y="910" fill="#7C8DA6" font-size="13" font-weight="500" font-family="Inter, sans-serif">API availability this month</text>
  <rect x="72" y="926" width="142" height="10" rx="5" fill="#1E293B"/>
  <rect x="72" y="926" width="134" height="10" rx="5" fill="#34D399"/>
  <circle cx="224" cy="935" r="18" fill="#11362F"/>
  <path d="M224 927V943" stroke="#86EFAC" stroke-width="2.2" stroke-linecap="round"/>
  <path d="M216 935H232" stroke="#86EFAC" stroke-width="2.2" stroke-linecap="round"/>

  <rect x="320" y="56" width="420" height="46" rx="16" fill="#111C30" stroke="#233047"/>
  <circle cx="346" cy="79" r="8" stroke="#7C8DA6" stroke-width="1.8" fill="none"/>
  <path d="M352 85L359 92" stroke="#7C8DA6" stroke-width="1.8" stroke-linecap="round"/>
  <text x="374" y="84" fill="#6F829D" font-size="14" font-weight="500" font-family="Inter, sans-serif">Search projects, contracts, wallets, events</text>

  <rect x="1060" y="56" width="120" height="46" rx="16" fill="#111C30" stroke="#233047"/>
  <text x="1084" y="84" fill="#E2E8F0" font-size="14" font-weight="700" font-family="Inter, sans-serif">Production</text>
  <path d="M1156 76L1164 84L1172 76" stroke="#7C8DA6" stroke-width="1.8" stroke-linecap="round" stroke-linejoin="round"/>

  <rect x="1196" y="56" width="184" height="46" rx="16" fill="#111C30" stroke="#233047"/>
  <circle cx="1230" cy="79" r="16" fill="#0EA5E9"/>
  <text x="1224" y="84" fill="#FFFFFF" font-size="13" font-weight="700" font-family="Inter, sans-serif">RY</text>
  <text x="1256" y="76" fill="#E2E8F0" font-size="14" font-weight="700" font-family="Inter, sans-serif">Ryan Kim</text>
  <text x="1256" y="92" fill="#7C8DA6" font-size="12" font-weight="500" font-family="Inter, sans-serif">Owner</text>

  <text x="320" y="154" fill="#F8FAFC" font-size="42" font-weight="700" font-family="Space Grotesk, Inter, sans-serif">Console Overview</text>
  <text x="320" y="184" fill="#94A3B8" font-size="16" font-weight="500" font-family="Inter, sans-serif">A premium dark surface for operators, project health, and revenue-critical actions.</text>

  <rect x="320" y="214" width="1060" height="156" rx="28" fill="url(#heroGradientDark)"/>
  <g opacity="0.15">
    <circle cx="1238" cy="196" r="116" fill="#FFFFFF"/>
    <circle cx="1118" cy="336" r="82" fill="#FFFFFF"/>
  </g>
  <text x="356" y="258" fill="#CCFBF1" font-size="12" font-weight="700" font-family="Inter, sans-serif" letter-spacing="1.6">TODAY'S SIGNAL</text>
  <text x="356" y="304" fill="#FFFFFF" font-size="34" font-weight="700" font-family="Space Grotesk, Inter, sans-serif">Your platform is healthy, but 2 projects</text>
  <text x="356" y="342" fill="#FFFFFF" font-size="34" font-weight="700" font-family="Space Grotesk, Inter, sans-serif">need treasury attention this week.</text>
  <text x="356" y="390" fill="#CFFAFE" font-size="15" font-weight="500" font-family="Inter, sans-serif">Focus operators on supply pacing, mint rate anomalies, and API credential hygiene.</text>

  <rect x="1048" y="246" width="144" height="42" rx="14" fill="#FFFFFF"/>
  <text x="1086" y="273" fill="#0F172A" font-size="14" font-weight="700" font-family="Inter, sans-serif">Open Queue</text>
  <rect x="1206" y="246" width="138" height="42" rx="14" fill="#0B2542" stroke="#7DD3FC"/>
  <text x="1240" y="273" fill="#E0F2FE" font-size="14" font-weight="700" font-family="Inter, sans-serif">View Health</text>

  <g filter="url(#cardShadowDark)">
    <rect x="320" y="398" width="244" height="132" rx="22" fill="#111C30" stroke="#223047"/>
  </g>
  <rect x="344" y="422" width="42" height="42" rx="14" fill="#082F49"/>
  <path d="M357 443H373" stroke="#67E8F9" stroke-width="2" stroke-linecap="round"/>
  <path d="M365 435V451" stroke="#67E8F9" stroke-width="2" stroke-linecap="round"/>
  <text x="404" y="433" fill="#7C8DA6" font-size="13" font-weight="700" font-family="Inter, sans-serif" letter-spacing="1">MONTHLY GROSS</text>
  <text x="404" y="470" fill="#F8FAFC" font-size="30" font-weight="700" font-family="Space Grotesk, Inter, sans-serif">$184.2K</text>
  <text x="404" y="494" fill="#34D399" font-size="13" font-weight="700" font-family="Inter, sans-serif">+14.8% vs last month</text>

  <g filter="url(#cardShadowDark)">
    <rect x="588" y="398" width="244" height="132" rx="22" fill="#111C30" stroke="#223047"/>
  </g>
  <rect x="612" y="422" width="42" height="42" rx="14" fill="#11362F"/>
  <circle cx="633" cy="443" r="8" stroke="#34D399" stroke-width="2" fill="none"/>
  <text x="672" y="433" fill="#7C8DA6" font-size="13" font-weight="700" font-family="Inter, sans-serif" letter-spacing="1">ACTIVE PROJECTS</text>
  <text x="672" y="470" fill="#F8FAFC" font-size="30" font-weight="700" font-family="Space Grotesk, Inter, sans-serif">12</text>
  <text x="672" y="494" fill="#34D399" font-size="13" font-weight="700" font-family="Inter, sans-serif">2 pending launch reviews</text>

  <g filter="url(#cardShadowDark)">
    <rect x="856" y="398" width="244" height="132" rx="22" fill="#111C30" stroke="#223047"/>
  </g>
  <rect x="880" y="422" width="42" height="42" rx="14" fill="#1E1B4B"/>
  <path d="M892 449L901 440L908 447L919 434" stroke="#818CF8" stroke-width="2.2" stroke-linecap="round" stroke-linejoin="round"/>
  <text x="940" y="433" fill="#7C8DA6" font-size="13" font-weight="700" font-family="Inter, sans-serif" letter-spacing="1">TOKEN FLOW</text>
  <text x="940" y="470" fill="#F8FAFC" font-size="30" font-weight="700" font-family="Space Grotesk, Inter, sans-serif">8.4M</text>
  <text x="940" y="494" fill="#818CF8" font-size="13" font-weight="700" font-family="Inter, sans-serif">Distributed across 4 chains</text>

  <g filter="url(#cardShadowDark)">
    <rect x="1124" y="398" width="256" height="132" rx="22" fill="#111C30" stroke="#223047"/>
  </g>
  <rect x="1148" y="422" width="42" height="42" rx="14" fill="#431407"/>
  <path d="M1160 449H1178" stroke="#FB923C" stroke-width="2.2" stroke-linecap="round"/>
  <path d="M1169 440V458" stroke="#FB923C" stroke-width="2.2" stroke-linecap="round"/>
  <text x="1208" y="433" fill="#7C8DA6" font-size="13" font-weight="700" font-family="Inter, sans-serif" letter-spacing="1">ALERTS</text>
  <text x="1208" y="470" fill="#F8FAFC" font-size="30" font-weight="700" font-family="Space Grotesk, Inter, sans-serif">03</text>
  <text x="1208" y="494" fill="#FB923C" font-size="13" font-weight="700" font-family="Inter, sans-serif">Low reserve in two treasuries</text>

  <rect x="320" y="562" width="658" height="348" rx="26" fill="#111C30" stroke="#223047"/>
  <text x="352" y="600" fill="#F8FAFC" font-size="22" font-weight="700" font-family="Space Grotesk, Inter, sans-serif">Revenue & Usage</text>
  <text x="352" y="624" fill="#94A3B8" font-size="14" font-weight="500" font-family="Inter, sans-serif">API volume, launches, and paid activity over the last 6 months</text>

  <g opacity="0.78">
    <path d="M352 830H946" stroke="#263449" stroke-width="1.2"/>
    <path d="M352 778H946" stroke="#263449" stroke-width="1.2"/>
    <path d="M352 726H946" stroke="#263449" stroke-width="1.2"/>
    <path d="M352 674H946" stroke="#263449" stroke-width="1.2"/>
    <path d="M352 622H946" stroke="#263449" stroke-width="1.2"/>
  </g>

  <path d="M380 798L470 764L560 780L650 706L740 682L830 638L920 610L920 830L380 830Z" fill="url(#chartAreaDark)"/>
  <path d="M380 798L470 764L560 780L650 706L740 682L830 638L920 610" stroke="#22D3EE" stroke-width="4.5" stroke-linecap="round" stroke-linejoin="round"/>
  <circle cx="380" cy="798" r="7" fill="#22D3EE"/>
  <circle cx="470" cy="764" r="7" fill="#22D3EE"/>
  <circle cx="560" cy="780" r="7" fill="#22D3EE"/>
  <circle cx="650" cy="706" r="7" fill="#22D3EE"/>
  <circle cx="740" cy="682" r="7" fill="#22D3EE"/>
  <circle cx="830" cy="638" r="7" fill="#22D3EE"/>
  <circle cx="920" cy="610" r="7" fill="#22D3EE"/>

  <path d="M380 816L470 804L560 790L650 780L740 758L830 742L920 716" stroke="#64748B" stroke-width="3" stroke-linecap="round" stroke-linejoin="round" stroke-dasharray="8 10"/>

  <g fill="#94A3B8" font-family="Inter, sans-serif" font-size="12" font-weight="600">
    <text x="370" y="856">Jan</text>
    <text x="460" y="856">Feb</text>
    <text x="550" y="856">Mar</text>
    <text x="640" y="856">Apr</text>
    <text x="730" y="856">May</text>
    <text x="820" y="856">Jun</text>
    <text x="910" y="856">Jul</text>
  </g>

  <rect x="352" y="646" width="116" height="72" rx="16" fill="#020617"/>
  <text x="372" y="672" fill="#67E8F9" font-size="11" font-weight="700" font-family="Inter, sans-serif" letter-spacing="1.2">BEST MONTH</text>
  <text x="372" y="704" fill="#FFFFFF" font-size="24" font-weight="700" font-family="Space Grotesk, Inter, sans-serif">$211K</text>

  <rect x="1000" y="562" width="380" height="164" rx="26" fill="#111C30" stroke="#223047"/>
  <text x="1032" y="600" fill="#F8FAFC" font-size="22" font-weight="700" font-family="Space Grotesk, Inter, sans-serif">Operator Queue</text>
  <text x="1032" y="624" fill="#94A3B8" font-size="14" font-weight="500" font-family="Inter, sans-serif">Actions that need an answer today</text>

  <rect x="1032" y="646" width="316" height="34" rx="12" fill="#3F2A0A"/>
  <circle cx="1054" cy="663" r="6" fill="#F59E0B"/>
  <text x="1070" y="668" fill="#FCD34D" font-size="13" font-weight="700" font-family="Inter, sans-serif">Review reserve ratio for Project Atlas</text>

  <rect x="1032" y="690" width="316" height="34" rx="12" fill="#123825"/>
  <circle cx="1054" cy="707" r="6" fill="#22C55E"/>
  <text x="1070" y="712" fill="#86EFAC" font-size="13" font-weight="700" font-family="Inter, sans-serif">Approve credential rotation rollout</text>

  <rect x="1000" y="744" width="380" height="166" rx="26" fill="#111C30" stroke="#223047"/>
  <text x="1032" y="782" fill="#F8FAFC" font-size="22" font-weight="700" font-family="Space Grotesk, Inter, sans-serif">Platform Health</text>
  <text x="1032" y="806" fill="#94A3B8" font-size="14" font-weight="500" font-family="Inter, sans-serif">Core signals for operators and finance teams</text>

  <g fill="#F8FAFC" font-family="Space Grotesk, Inter, sans-serif" font-weight="700">
    <text x="1032" y="852" font-size="28">184ms</text>
    <text x="1152" y="852" font-size="28">2.1M</text>
    <text x="1272" y="852" font-size="28">7</text>
  </g>
  <g fill="#94A3B8" font-family="Inter, sans-serif" font-size="12" font-weight="700" letter-spacing="1">
    <text x="1032" y="874">P95 LATENCY</text>
    <text x="1152" y="874">API CALLS</text>
    <text x="1272" y="874">FAILED TXS</text>
  </g>
  <path d="M1032 892H1348" stroke="#223047"/>
  <text x="1032" y="916" fill="#34D399" font-size="13" font-weight="700" font-family="Inter, sans-serif">Healthy overall, but treasury alerts need review before next payout window.</text>

  <path d="M320 960H1380" stroke="#223047"/>
  <text x="320" y="986" fill="#94A3B8" font-size="13" font-weight="500" font-family="Inter, sans-serif">Same layout system, different semantic tokens. Dark mode should be a first-class theme, not a color inversion.</text>
</svg>
