<svg width="32" height="32" viewBox="0 0 32 32" fill="none" xmlns="http://www.w3.org/2000/svg">
<path d="M6.54553 14.4644H4.51562M14.3678 4.40393V6.64384M22.6097 6.22257L19.8935 8.93878M8.83543 19.9968L5.91426 22.918M5.27185 5.38024L8.83543 8.94382M17.4859 26.885L14.109 16.5779C13.9572 15.9141 13.5798 14.6413 14.0613 14.1597C14.5429 13.6782 15.8157 14.0555 16.4796 14.2074L26.7866 17.5843C27.1563 17.6399 27.4417 17.9381 27.4812 18.3098C27.5207 18.6816 27.3043 19.0331 26.9546 19.1652L22.1094 21.3694C21.7295 21.5362 21.426 21.8396 21.2593 22.2195L19.0584 27.0647C18.9263 27.4144 18.5748 27.6309 18.2031 27.5914C17.8313 27.5519 17.5332 27.2664 17.4775 26.8967L17.4859 26.885Z" stroke="#00D190" stroke-width="2.66667" stroke-linecap="round" stroke-linejoin="round"/>
</svg>
