<svg width="32" height="32" viewBox="0 0 32 32" fill="none" xmlns="http://www.w3.org/2000/svg">
<path fill-rule="evenodd" clip-rule="evenodd" d="M8.5537 23.7141H10.0326C12.4447 23.7462 14.4277 21.8496 14.4644 19.4753V18.0608C14.4277 15.6865 12.4447 13.7899 10.0326 13.822H8.5537C6.13901 13.7862 4.15196 15.6839 4.11523 18.0608V19.4737C4.13243 20.6154 4.60974 21.7036 5.44215 22.4989C6.27455 23.2941 7.39383 23.7313 8.5537 23.7141V23.7141Z" stroke="#00D190" stroke-width="2.66667" stroke-linecap="round" stroke-linejoin="round"/>
<path fill-rule="evenodd" clip-rule="evenodd" d="M23.4439 23.7141H21.965C19.5529 23.7462 17.5699 21.8496 17.5332 19.4753V18.0608C17.5699 15.6865 19.5529 13.7899 21.965 13.822H23.4439C25.8586 13.7862 27.8456 15.6839 27.8824 18.0608V19.4737C27.8652 20.6154 27.3878 21.7036 26.5554 22.4989C25.723 23.2941 24.6038 23.7313 23.4439 23.7141Z" stroke="#00D190" stroke-width="2.66667" stroke-linecap="round" stroke-linejoin="round"/>
<path d="M2.81774 17.9881C2.81774 18.7244 3.4147 19.3214 4.15108 19.3214C4.88746 19.3214 5.48441 18.7244 5.48441 17.9881H2.81774ZM6.21443 9.58126C6.93005 9.40763 7.36941 8.68675 7.19578 7.97113C7.02215 7.25551 6.30127 6.81615 5.58565 6.98978L6.21443 9.58126ZM13.6569 17.089C13.1602 17.6326 13.1983 18.476 13.742 18.9726C14.2857 19.4693 15.129 19.4312 15.6257 18.8875L13.6569 17.089ZM16.3618 18.8875C16.8585 19.4312 17.7018 19.4693 18.2455 18.9726C18.7892 18.476 18.8273 17.6326 18.3307 17.089L16.3618 18.8875ZM26.5126 17.9881C26.5126 18.7245 27.1096 19.3214 27.846 19.3214C28.5823 19.3214 29.1793 18.7245 29.1793 17.9881H26.5126ZM26.4114 6.98981C25.6958 6.81617 24.9749 7.25553 24.8013 7.97115C24.6276 8.68677 25.067 9.40765 25.7826 9.58128L26.4114 6.98981ZM5.48441 17.9881C5.48441 15.5341 5.3767 13.3883 5.53308 11.697C5.61031 10.8618 5.74314 10.289 5.911 9.93157C6.06006 9.61413 6.16951 9.59216 6.21443 9.58126L5.58565 6.98978C4.53705 7.24421 3.88111 7.98056 3.4972 8.79812C3.13209 9.57567 2.96438 10.5146 2.87774 11.4515C2.7064 13.3045 2.81774 15.7447 2.81774 17.9881H5.48441ZM15.6257 18.8875C15.7834 18.7149 15.9187 18.6859 15.9938 18.6859C16.0689 18.6859 16.2041 18.7149 16.3618 18.8875L18.3307 17.089C17.7141 16.414 16.884 16.0193 15.9938 16.0193C15.1035 16.0193 14.2734 16.414 13.6569 17.089L15.6257 18.8875ZM29.1793 17.9881C29.1793 15.7447 29.2906 13.3046 29.1193 11.4515C29.0327 10.5146 28.865 9.57569 28.4998 8.79814C28.1159 7.98058 27.46 7.24423 26.4114 6.98981L25.7826 9.58128C25.8275 9.59218 25.937 9.61415 26.086 9.93159C26.2539 10.2891 26.3867 10.8619 26.464 11.6971C26.6203 13.3883 26.5126 15.5341 26.5126 17.9881H29.1793Z" fill="#00D190"/>
</svg>
