<svg width="32" height="32" viewBox="0 0 32 32" fill="none" xmlns="http://www.w3.org/2000/svg">
<path d="M19.2266 7.59989L18.7858 8.85825L18.7873 8.85879L19.2266 7.59989ZM8.92322 10.7216L9.98831 11.5237L8.92322 10.7216ZM8.76889 21.4864L9.85654 20.7151L8.76889 21.4864ZM18.9785 24.9022L18.574 23.6317H18.5739L18.9785 24.9022ZM25.3332 16.2119L23.9999 16.2099L23.9999 16.2115L25.3332 16.2119ZM19.6674 6.34153C15.3718 4.83677 10.5962 6.28368 7.85813 9.91951L9.98831 11.5237C12.0281 8.81515 15.5857 7.73726 18.7858 8.85824L19.6674 6.34153ZM7.85813 9.91951C5.12005 13.5554 5.04852 18.5448 7.68125 22.2576L9.85654 20.7151C7.89525 17.9492 7.94854 14.2323 9.98831 11.5237L7.85813 9.91951ZM7.68125 22.2576C10.314 25.9704 15.0461 27.5537 19.3831 26.1727L18.5739 23.6317C15.3431 24.6605 11.8178 23.4811 9.85654 20.7151L7.68125 22.2576ZM19.3831 26.1727C23.72 24.7917 26.6654 20.7638 26.6666 16.2122L23.9999 16.2115C23.999 19.6023 21.8048 22.6029 18.574 23.6317L19.3831 26.1727ZM26.6666 16.2139C26.6732 11.768 23.8635 7.80559 19.6658 6.34098L18.7873 8.85879C21.9128 9.9493 24.0049 12.8996 23.9999 16.2099L26.6666 16.2139Z" fill="#00D190"/>
<path d="M11.9521 8.54097C7.97336 7.1767 4.83896 7.07585 3.99308 8.54097C2.71449 10.7555 7.1487 15.7093 13.8972 19.6056C20.6456 23.5018 27.1528 24.865 28.4314 22.6504C29.2229 21.2796 27.8253 18.8591 25.0449 16.2896" stroke="#00D190" stroke-width="2.66667"/>
</svg>
